<svg width="300" height="300" viewBox="0 0 300 300" fill="none" xmlns="http://www.w3.org/2000/svg">
<path d="M222.76 166C234.27 198.9 218.58 235.63 186.22 249C165.005 257.561 141.376 257.981 119.87 250.18C85.79 237.61 68.48 199.8 80.43 165.67C85.4437 151.343 85.4437 135.737 80.43 121.41L80.14 120.59C68.72 87.9499 84.35 51.6899 116.39 38.2699C128.018 33.4871 140.501 31.13 153.073 31.3432C165.645 31.5565 178.04 34.3355 189.5 39.5099C219.91 53.5599 234 88.8599 223 120.35L222.8 120.92C217.68 135.51 217.68 151.409 222.8 166H222.76Z" fill="url(#paint0_linear_757_1122)"/>
<path d="M151.53 257.7C140.493 257.744 129.537 255.814 119.18 252C84.47 239.13 66.25 199.87 78.56 164.49C83.3999 150.49 83.3999 135.27 78.56 121.27L78.27 120.45C66.44 86.45 82.85 48.98 115.62 35.16C127.497 30.246 140.257 27.824 153.108 28.0442C165.959 28.2643 178.628 31.122 190.33 36.44C221.58 51 236.42 87 224.86 120.21L224.67 120.78C219.739 135.032 219.739 150.528 224.67 164.78L222.8 165.43L224.67 164.78C236.67 199.25 220.12 237 187.02 250.78C175.763 255.409 163.701 257.761 151.53 257.7ZM151.53 31.97C139.732 31.9163 128.044 34.2356 117.16 38.79C86.3 51.8 70.87 87.08 82 119.13L82.29 119.95C87.435 134.79 87.435 150.93 82.29 165.77C70.69 199.13 87.86 236.14 120.56 248.27C141.589 255.944 164.719 255.53 185.46 247.11C216.63 234.18 232.19 198.61 220.89 166.11C215.655 151.001 215.655 134.569 220.89 119.46L221.09 118.89C232 87.61 218.06 53.69 188.66 40C177.007 34.68 164.34 31.9506 151.53 32V31.97Z" fill="white"/>
<path d="M148.26 255.72C147.542 257.553 147.11 259.486 146.98 261.45C146.75 265.756 146.911 270.073 147.46 274.35L148.2 276.62C148.283 277.087 148.207 277.569 147.984 277.987C147.761 278.406 147.404 278.738 146.97 278.93C146.101 279.306 145.155 279.47 144.21 279.41L117.21 279.93C115.819 280.052 114.418 279.892 113.09 279.46C112.094 279.062 111.245 278.367 110.658 277.469C110.072 276.571 109.776 275.515 109.811 274.443C109.846 273.371 110.21 272.336 110.854 271.478C111.498 270.621 112.39 269.982 113.41 269.65C114.41 269.32 115.75 269.07 115.92 268.03C115.945 267.667 115.883 267.304 115.74 266.97L108.42 244.97L117.86 249.06C126.033 252.592 134.74 254.728 143.62 255.38L148.3 255.72H148.26Z" fill="url(#paint1_linear_757_1122)"/>
<path d="M146.35 255.2C145.303 258.313 144.812 261.587 144.9 264.87C144.786 268.129 144.994 271.392 145.52 274.61C145.64 275.2 145.9 275.76 146.03 276.35C146.12 276.75 146.3 276.89 146.1 277.16C145.9 277.43 144.61 277.42 144.21 277.43C140.63 277.55 137.05 277.57 133.47 277.64L123.13 277.84L117.96 277.94C116.35 277.94 114.33 278.24 112.96 277.15C110.46 275.15 112.12 272.23 114.55 271.35C116.72 270.56 118.28 269.21 117.67 266.71C116.77 263.03 115.25 259.4 114.05 255.81L110.27 244.44L107.36 246.68C112.36 248.84 117.36 251.19 122.45 252.99C130.83 255.99 139.45 257.06 148.24 257.7L146.33 255.2C145.42 257.58 149.25 258.61 150.15 256.25C150.64 254.96 149.4 253.83 148.24 253.74C139.78 253.12 131.55 252.01 123.5 249.18C118.69 247.48 114.04 245.29 109.36 243.26C107.92 242.64 105.85 243.69 106.45 245.5L110.23 256.86L112.06 262.36L112.92 264.93L113.41 266.4C113.5 266.69 113.65 267.93 114.12 267.29C113.88 267.61 112.96 267.69 112.58 267.84C112 268.046 111.449 268.325 110.94 268.67C109.787 269.474 108.888 270.591 108.35 271.89C107.804 273.211 107.666 274.666 107.953 276.066C108.24 277.467 108.939 278.75 109.96 279.75C112.54 282.3 116.19 281.93 119.53 281.87L131.86 281.63C135.97 281.55 140.08 281.52 144.19 281.39C146.82 281.31 150.1 280.39 150.19 277.17C150.123 276.24 149.904 275.328 149.54 274.47C149.175 272.943 148.984 271.38 148.97 269.81C148.67 265.24 148.55 260.6 150.13 256.25C151 253.85 147.22 252.82 146.35 255.2Z" fill="white"/>
<path d="M155 255.62C155.724 257.448 156.156 259.378 156.28 261.34C156.511 265.646 156.35 269.963 155.8 274.24L155.06 276.52C154.979 276.987 155.056 277.468 155.278 277.886C155.501 278.304 155.857 278.637 156.29 278.83C157.166 279.196 158.112 279.36 159.06 279.31L186.06 279.83C187.451 279.951 188.852 279.792 190.18 279.36C191.179 278.963 192.031 278.267 192.62 277.367C193.208 276.468 193.505 275.408 193.469 274.334C193.433 273.259 193.066 272.222 192.418 271.364C191.77 270.506 190.873 269.869 189.85 269.54C188.85 269.22 187.51 268.97 187.35 267.93C187.322 267.568 187.38 267.205 187.52 266.87L194.84 244.87L185.4 249C177.234 252.542 168.528 254.679 159.65 255.32L154.96 255.67L155 255.62Z" fill="url(#paint2_linear_757_1122)"/>
<path d="M153.05 256.14C154.43 259.93 154.46 263.82 154.31 267.8C154.308 269.705 154.164 271.607 153.88 273.49C153.72 274.26 153.38 274.99 153.19 275.75C153.046 276.339 153.026 276.952 153.133 277.549C153.239 278.146 153.469 278.714 153.808 279.217C154.147 279.72 154.588 280.146 155.101 280.469C155.615 280.791 156.19 281.003 156.79 281.09C158.445 281.333 160.119 281.416 161.79 281.34L168.15 281.46L180.48 281.7C183.92 281.77 188.24 282.54 191.43 280.94C192.649 280.301 193.661 279.328 194.347 278.135C195.034 276.943 195.366 275.579 195.307 274.204C195.247 272.829 194.797 271.5 194.01 270.371C193.222 269.242 192.13 268.361 190.86 267.83C190.55 267.7 190.24 267.61 189.92 267.5L189.46 267.35C189.03 267.14 188.95 267.12 189.25 267.29C189.34 267.8 189.67 266.64 189.66 266.66C189.904 266.064 190.107 265.453 190.27 264.83L192.35 258.59L196.74 245.39C197.35 243.57 195.27 242.53 193.83 243.16C189.15 245.16 184.51 247.38 179.69 249.07C171.69 251.91 163.42 253.07 154.95 253.64C153.79 253.72 152.55 254.85 153.04 256.14C153.94 258.5 157.77 257.48 156.86 255.14L155 257.6C163.81 256.95 172.41 255.84 180.8 252.89C185.93 251.08 190.89 248.74 195.88 246.58L192.97 244.34L186.51 263.77C185.73 266.12 184.41 268.99 187.13 270.61C188.06 271.16 189.2 271.23 190.13 271.85C190.665 272.217 191.077 272.737 191.313 273.341C191.548 273.946 191.596 274.608 191.45 275.24C190.58 278.69 186.02 277.85 183.35 277.8L172.62 277.59L161.88 277.38C160.62 277.38 158.88 277.65 157.65 277.2C156.95 276.95 157.15 277.09 157.17 276.55C157.252 276.158 157.376 275.776 157.54 275.41C158.4 272.56 158.35 269.25 158.39 266.28C158.611 262.493 158.122 258.698 156.95 255.09C156 252.71 152.18 253.74 153.05 256.14Z" fill="white"/>
<path d="M113.12 186.93C112.99 196.66 113.35 207.48 116.83 216.68C118.096 220.427 120.353 223.761 123.36 226.33C126.99 229.22 131.58 230.06 136.05 230.67C146.266 232.078 156.658 231.511 166.66 229C175.05 226.88 184.95 223.66 189.78 215.91C195.32 207.03 194.94 195.81 196.2 185.78C196.52 183.26 192.55 183.28 192.2 185.78C190.99 195.41 191.72 207.68 185.12 215.61C181.7 219.72 176.26 221.82 171.34 223.48C160.153 227.264 148.24 228.397 136.54 226.79C130.83 226 125.68 224.64 122.49 219.47C120 215.47 118.97 210.67 118.27 206.04C117.331 199.722 116.919 193.336 117.04 186.95C117.04 184.4 113.11 184.4 113.04 186.95L113.12 186.93Z" fill="white"/>
<path d="M85.45 175.48C93.51 182.72 103.79 185.76 114.35 187.11C126.92 188.71 139.69 188.61 152.35 188.62H173.18C179.49 188.62 185.86 188.82 192.18 188.07C202.63 186.83 212.8 182.3 217.97 172.68C219.18 170.43 215.76 168.43 214.55 170.68C209.12 180.77 197.94 183.98 187.2 184.52C175.2 185.12 163.11 184.66 151.11 184.64C139.57 184.64 127.96 184.64 116.47 183.38C106.32 182.27 96.07 179.65 88.3 172.67C86.41 170.97 83.6 173.77 85.5 175.47L85.45 175.48Z" fill="white"/>
<path d="M133.96 72.36C136.688 72.36 138.9 69.5976 138.9 66.19C138.9 62.7824 136.688 60.02 133.96 60.02C131.232 60.02 129.02 62.7824 129.02 66.19C129.02 69.5976 131.232 72.36 133.96 72.36Z" fill="#404CBC"/>
<path d="M158.65 72.36C161.378 72.36 163.59 69.5976 163.59 66.19C163.59 62.7824 161.378 60.02 158.65 60.02C155.922 60.02 153.71 62.7824 153.71 66.19C153.71 69.5976 155.922 72.36 158.65 72.36Z" fill="#404CBC"/>
<path d="M124 57.2999C124 57.2999 132.06 57.6699 137.92 55.0599" stroke="#404CBC" stroke-width="4.3" stroke-miterlimit="10" stroke-linecap="round"/>
<path d="M168 57.09C168 57.09 159.94 57.46 154.07 54.85" stroke="#404CBC" stroke-width="4.3" stroke-miterlimit="10" stroke-linecap="round"/>
<path d="M140 80C140 80 142 78 146.65 78C151 78 153 79 154 80.13" stroke="#404CBC" stroke-width="4.3" stroke-miterlimit="10" stroke-linecap="round"/>
<path d="M185.27 148.65C179.67 145.83 177.14 139.54 176.84 133.53C176.678 130.067 177.271 126.61 178.58 123.4C179.79 120.4 182.12 117.49 181.14 114.08C180.644 112.674 179.925 111.357 179.01 110.18C178.29 109.12 176.78 107.27 177.68 105.93C178.441 105.109 179.455 104.566 180.56 104.39C182.038 104.024 183.557 103.846 185.08 103.86C186.015 103.777 186.956 103.9 187.837 104.221C188.719 104.543 189.519 105.055 190.18 105.72C192.18 107.79 192.13 110.21 191.68 112.87C191.1 116.29 190.6 119.54 191.68 122.94C192.87 126.77 195.21 130.1 197.49 133.35C198.81 135.24 201.93 133.44 200.6 131.54C198.44 128.45 196.07 125.25 195.03 121.54C194.09 118.21 195.09 115.03 195.48 111.7C195.715 110.151 195.588 108.568 195.109 107.076C194.631 105.584 193.813 104.223 192.72 103.1C191.039 101.37 188.76 100.35 186.35 100.25C183.24 100.02 179.35 100.4 176.65 102.11C173.26 104.25 173.36 108 175.36 111.11C176.22 112.44 177.63 113.88 177.81 115.51C177.99 117.14 176.64 119.02 175.94 120.51C174.273 124.029 173.357 127.857 173.25 131.75C173.09 139.48 176.25 148.06 183.49 151.7C185.55 152.7 187.38 149.63 185.3 148.59L185.27 148.65Z" fill="white"/>
<path d="M104.36 133.65C107.848 136.172 111.477 138.492 115.23 140.6C119.02 142.79 123.03 145.15 127.42 145.78C129.11 146.02 130.81 146.18 132.5 146.39C133.41 146.5 134.32 146.64 135.22 146.82C135.876 146.895 136.522 147.036 137.15 147.24C137.49 147.67 137.25 149.02 137.26 149.52C137.26 150.28 137.26 151.04 137.26 151.8C137.345 152.495 137.178 153.197 136.789 153.779C136.4 154.361 135.815 154.783 135.14 154.97C130.82 156.73 125.56 155.86 121.14 155.26C115.6 154.52 109.94 153.14 104.32 153.26C102.01 153.31 102 156.92 104.32 156.86C109.61 156.73 114.92 157.99 120.14 158.71C125.36 159.43 131.14 160.36 136.14 158.4C137.684 157.912 139.03 156.941 139.98 155.63C140.91 154.15 140.87 152.37 140.85 150.69C140.83 149.01 141.12 146.91 140.21 145.4C139.3 143.89 137.32 143.54 135.7 143.24C132.46 142.64 128.99 142.76 125.84 141.78C123.801 141.075 121.832 140.182 119.96 139.11C115.155 136.584 110.54 133.713 106.15 130.52C105.738 130.28 105.247 130.214 104.785 130.336C104.324 130.458 103.93 130.758 103.69 131.17C103.461 131.585 103.4 132.072 103.521 132.53C103.642 132.989 103.936 133.383 104.34 133.63L104.36 133.65Z" fill="white"/>
<path d="M126.85 142.5L123.1 113.16L121.6 114.66C135.52 114.96 149.43 114.72 163.33 113.94L161.83 112.44C161.83 117.09 161.94 121.73 162.37 126.36C162.8 130.99 163.52 135.69 164.24 140.36C165.65 149.56 167.03 158.99 165.47 168.27L166.92 167.17C159.233 167.397 151.54 167.43 143.84 167.27C140.04 167.18 136.23 167.05 132.43 166.87L129.7 166.73C129.249 166.774 128.793 166.747 128.35 166.65C127.97 166.45 128.04 166.44 127.93 165.95C127.5 164.04 127.12 162.12 126.71 160.2C126.3 158.28 123.41 159.11 123.82 161C124.23 162.89 124.56 165.12 125.12 167.11C125.64 168.91 126.96 169.53 128.71 169.67C132.91 170 137.15 170.09 141.36 170.2C149.88 170.44 158.4 170.44 166.92 170.2C167.248 170.196 167.565 170.087 167.826 169.889C168.087 169.691 168.278 169.414 168.37 169.1C169.93 159.72 168.76 150.33 167.37 141.02C166.65 136.32 165.88 131.62 165.43 126.89C164.98 122.16 164.87 117.3 164.85 112.49C164.845 112.094 164.685 111.715 164.405 111.435C164.125 111.155 163.746 110.995 163.35 110.99C149.457 111.77 135.547 112.01 121.62 111.71C121.222 111.71 120.841 111.868 120.559 112.149C120.278 112.431 120.12 112.812 120.12 113.21L123.87 142.55C124.11 144.44 127.11 144.47 126.87 142.55L126.85 142.5Z" fill="white"/>
<g opacity="0.5">
<path opacity="0.5" d="M163.49 125.88C163.1 121.42 163.01 116.93 163 112.44C149.1 113.233 135.19 113.473 121.27 113.16L125 142.5V143.5L126.52 143.82C130.01 144.44 133.61 144.49 137.04 145.38C137.622 145.477 138.158 145.757 138.57 146.18C138.933 146.747 139.095 147.42 139.03 148.09C139.03 149.19 139.03 150.3 139.03 151.41C139.12 152.432 138.962 153.461 138.57 154.41C137.86 155.81 136.25 156.47 134.76 156.98C131.527 158.068 128.227 158.943 124.88 159.6V160.6C125.29 162.52 125.69 164.43 126.1 166.35C126.155 166.837 126.353 167.296 126.67 167.67C127.146 168.029 127.735 168.207 128.33 168.17C141.05 168.89 153.783 169.057 166.53 168.67C169 154.51 164.73 140.18 163.49 125.88Z" fill="white"/>
</g>
<path d="M129 123.56C128.512 124.439 128.119 125.367 127.83 126.33C127.654 126.873 127.537 127.432 127.48 128C127.46 128.435 127.589 128.865 127.845 129.217C128.101 129.57 128.47 129.825 128.89 129.94C129.43 130.049 129.979 130.103 130.53 130.1L132.03 130.19C133.03 130.25 134.08 130.29 135.11 130.32C135.508 130.32 135.889 130.162 136.171 129.881C136.452 129.599 136.61 129.218 136.61 128.82C136.61 128.422 136.452 128.041 136.171 127.759C135.889 127.478 135.508 127.32 135.11 127.32C133.4 127.32 131.69 127.19 129.98 127.07H129.68H129.6C129.75 127.07 129.76 127.07 129.6 127.07L130.42 128.14C130.42 128.51 130.42 128.26 130.42 128.14C130.495 127.765 130.588 127.395 130.7 127.03C130.76 126.84 130.83 126.65 130.9 126.46C130.97 126.27 130.95 126.33 130.97 126.26C130.99 126.19 131.12 125.84 130.97 126.26C131.118 125.887 131.296 125.526 131.5 125.18C131.683 124.838 131.727 124.437 131.621 124.064C131.515 123.69 131.269 123.372 130.933 123.176C130.598 122.98 130.199 122.923 129.822 123.015C129.445 123.107 129.118 123.342 128.91 123.67L129 123.56Z" fill="white"/>
<path d="M133 124.61L132.28 135.61C132.28 136.008 132.438 136.389 132.719 136.671C133.001 136.952 133.382 137.11 133.78 137.11C134.178 137.11 134.559 136.952 134.841 136.671C135.122 136.389 135.28 136.008 135.28 135.61L136 124.61C136 124.212 135.842 123.831 135.561 123.549C135.279 123.268 134.898 123.11 134.5 123.11C134.102 123.11 133.721 123.268 133.439 123.549C133.158 123.831 133 124.212 133 124.61Z" fill="white"/>
<path d="M138.93 126.9C138.849 127.082 138.792 127.273 138.76 127.47C138.693 127.776 138.656 128.087 138.65 128.4C138.658 129.031 138.816 129.651 139.11 130.21C139.389 130.734 139.813 131.168 140.33 131.46C140.846 131.75 141.428 131.901 142.02 131.9C142.309 131.893 142.595 131.846 142.87 131.76C143.142 131.685 143.4 131.564 143.63 131.4C143.972 131.163 144.265 130.86 144.49 130.51C144.574 130.367 144.644 130.216 144.7 130.06C144.771 129.906 144.828 129.745 144.87 129.58C145.03 128.974 145.03 128.336 144.87 127.73C144.8 127.433 144.681 127.149 144.52 126.89C144.298 126.535 144.005 126.228 143.66 125.99C143.413 125.814 143.134 125.685 142.84 125.61C142.547 125.53 142.243 125.499 141.94 125.52C141.515 125.549 141.102 125.672 140.73 125.88C140.374 126.094 140.073 126.389 139.85 126.74C139.651 127.093 139.598 127.508 139.7 127.9C139.809 128.273 140.056 128.591 140.39 128.79C140.729 128.97 141.123 129.016 141.494 128.918C141.865 128.819 142.185 128.584 142.39 128.26C142.407 128.223 142.431 128.189 142.46 128.16L142.22 128.47L142.38 128.31L142.07 128.55C142.147 128.491 142.231 128.44 142.32 128.4L141.97 128.55L142.25 128.47L141.85 128.53C141.976 128.51 142.104 128.51 142.23 128.53L141.83 128.47C141.954 128.487 142.075 128.52 142.19 128.57L141.84 128.42C141.933 128.462 142.02 128.516 142.1 128.58L141.79 128.34C141.88 128.41 141.96 128.49 142.03 128.58L141.79 128.28C141.872 128.38 141.939 128.491 141.99 128.61L141.84 128.26C141.906 128.42 141.953 128.588 141.98 128.76L141.92 128.37C141.94 128.563 141.94 128.757 141.92 128.95L141.97 128.55C141.939 128.735 141.888 128.916 141.82 129.09L141.97 128.73C141.91 128.864 141.837 128.991 141.75 129.11L141.99 128.81C141.921 128.897 141.844 128.977 141.76 129.05L142.06 128.81C141.969 128.882 141.868 128.939 141.76 128.98L142.12 128.83C142.001 128.878 141.877 128.912 141.75 128.93L142.15 128.88C141.994 128.9 141.836 128.9 141.68 128.88L142.08 128.93C141.909 128.907 141.741 128.863 141.58 128.8L141.94 128.95C141.808 128.892 141.684 128.818 141.57 128.73L141.87 128.96C141.761 128.876 141.664 128.779 141.58 128.67L141.82 128.97C141.724 128.842 141.64 128.704 141.57 128.56L141.73 128.91C141.645 128.723 141.587 128.524 141.56 128.32L141.62 128.72C141.59 128.481 141.59 128.239 141.62 128L141.57 128.4C141.604 128.16 141.668 127.924 141.76 127.7C141.813 127.508 141.827 127.307 141.802 127.11C141.776 126.912 141.711 126.722 141.61 126.55C141.408 126.215 141.086 125.968 140.71 125.86C140.516 125.807 140.314 125.793 140.115 125.819C139.916 125.845 139.724 125.91 139.55 126.01L139.25 126.24C139.071 126.425 138.941 126.652 138.87 126.9H138.93Z" fill="white"/>
<path d="M150 124L147.56 128C147.18 128.62 146.75 129.23 146.42 129.87C146.279 130.138 146.209 130.437 146.218 130.74C146.227 131.042 146.313 131.337 146.469 131.596C146.624 131.856 146.844 132.07 147.107 132.22C147.37 132.37 147.667 132.449 147.97 132.45C148.764 132.409 149.553 132.302 150.33 132.13L152.62 131.78L157.38 131.06C157.764 130.953 158.089 130.698 158.286 130.351C158.483 130.005 158.534 129.594 158.43 129.21C158.312 128.833 158.055 128.516 157.712 128.321C157.368 128.126 156.964 128.068 156.58 128.16L152.1 128.84L149.9 129.18L148.8 129.34L148.25 129.43H147.98C148.127 129.4 148.279 129.412 148.421 129.463C148.562 129.514 148.686 129.603 148.78 129.72L149.16 130.38V130.29V131.09L149.08 131.25L149.22 131.02L149.46 130.63L149.89 129.94L150.79 128.47L152.6 125.53C152.7 125.359 152.766 125.17 152.794 124.974C152.821 124.778 152.81 124.578 152.76 124.387C152.71 124.195 152.624 124.015 152.504 123.857C152.385 123.699 152.236 123.565 152.065 123.465C151.894 123.365 151.705 123.299 151.509 123.271C151.313 123.244 151.113 123.255 150.922 123.305C150.73 123.354 150.55 123.441 150.392 123.561C150.234 123.68 150.1 123.829 150 124Z" fill="white"/>
<path d="M153.32 127.15C153.41 130.96 153.42 134.77 153.37 138.58C153.37 138.978 153.528 139.359 153.809 139.641C154.091 139.922 154.472 140.08 154.87 140.08C155.268 140.08 155.649 139.922 155.931 139.641C156.212 139.359 156.37 138.978 156.37 138.58C156.37 134.77 156.37 130.96 156.32 127.15C156.32 125.22 153.32 125.21 153.32 127.15Z" fill="white"/>
<path d="M142 150.13L142.77 154.72L145.66 153.92C145.66 153.92 145.61 153.58 145.66 153.83C145.71 154.08 145.66 153.83 145.66 153.83V153.39C145.66 153.09 145.71 152.8 145.66 152.51C145.66 152.87 145.66 152.69 145.66 152.57V152.37C145.66 152.23 145.72 152.09 145.76 151.94C145.8 151.79 145.85 151.63 145.9 151.47C145.919 151.408 145.942 151.348 145.97 151.29C145.97 151.24 146.1 150.97 145.97 151.2C145.84 151.43 145.97 151.2 145.97 151.2L146.08 150.98L146.29 150.59L146.53 150.22L146.64 150.06C146.8 149.83 146.49 150.23 146.64 150.06C146.827 149.832 147.027 149.615 147.24 149.41L147.57 149.12C147.72 148.99 147.57 149.12 147.5 149.17C147.43 149.22 147.66 149.05 147.74 149C148.083 148.798 148.333 148.469 148.433 148.083C148.533 147.698 148.477 147.288 148.275 146.945C148.073 146.601 147.744 146.352 147.358 146.252C146.973 146.151 146.563 146.208 146.22 146.41C144.895 147.321 143.861 148.596 143.241 150.081C142.622 151.565 142.445 153.197 142.73 154.78C142.838 155.161 143.091 155.485 143.435 155.682C143.779 155.878 144.187 155.931 144.57 155.83C144.948 155.714 145.267 155.457 145.462 155.113C145.658 154.77 145.714 154.364 145.62 153.98L144.86 149.39C144.742 149.015 144.483 148.702 144.138 148.515C143.792 148.328 143.388 148.283 143.01 148.39C142.643 148.516 142.337 148.775 142.152 149.116C141.967 149.456 141.916 149.854 142.01 150.23L142 150.13Z" fill="white"/>
<path d="M148.65 150.9C148.292 151.742 148.198 152.673 148.38 153.57C148.56 154.17 148.935 154.693 149.446 155.055C149.957 155.417 150.574 155.599 151.2 155.57C151.75 155.546 152.287 155.395 152.77 155.13C153.233 154.85 153.634 154.479 153.95 154.04C154.25 153.627 154.458 153.154 154.56 152.654C154.661 152.154 154.655 151.637 154.54 151.14C154.382 150.415 153.943 149.783 153.32 149.38C152.959 149.163 152.551 149.037 152.13 149.01C151.699 148.993 151.272 149.089 150.89 149.29C150.547 149.49 150.297 149.819 150.196 150.203C150.095 150.588 150.15 150.996 150.35 151.34C150.546 151.677 150.865 151.924 151.24 152.03L151.64 152.08C151.907 152.085 152.17 152.016 152.4 151.88L152.04 152.03H152.23H151.83H152.08H151.68C151.766 152.042 151.85 152.066 151.93 152.1L151.57 151.95C151.665 151.99 151.756 152.04 151.84 152.1L151.53 151.87C151.601 151.926 151.664 151.989 151.72 152.06L151.48 151.76C151.546 151.847 151.603 151.941 151.65 152.04L151.5 151.68C151.563 151.837 151.607 152.002 151.63 152.17L151.57 151.77C151.59 151.939 151.59 152.111 151.57 152.28V151.88C151.548 152.059 151.501 152.234 151.43 152.4L151.58 152.04C151.499 152.237 151.391 152.422 151.26 152.59L151.5 152.29C151.384 152.426 151.256 152.553 151.12 152.67L151.42 152.43C151.28 152.541 151.125 152.632 150.96 152.7L151.32 152.55C151.171 152.608 151.017 152.652 150.86 152.68L151.26 152.62C151.117 152.635 150.973 152.635 150.83 152.62H151.23C151.086 152.603 150.944 152.566 150.81 152.51L151.17 152.66C151.071 152.616 150.978 152.563 150.89 152.5L151.19 152.73C151.13 152.67 151.07 152.62 151.01 152.55L151.25 152.85C151.184 152.763 151.127 152.669 151.08 152.57L151.23 152.93C151.191 152.812 151.161 152.692 151.14 152.57V152.97C151.115 152.771 151.115 152.569 151.14 152.37L151.09 152.77C151.147 152.397 151.244 152.032 151.38 151.68C151.46 151.392 151.453 151.087 151.359 150.804C151.265 150.52 151.089 150.271 150.853 150.089C150.616 149.906 150.331 149.798 150.033 149.779C149.735 149.76 149.438 149.83 149.18 149.98C148.855 150.193 148.612 150.511 148.49 150.88L148.65 150.9Z" fill="white"/>
<path d="M156 149.7C156.1 149.9 156.2 150.1 156.29 150.3C156.38 150.5 156.29 150.42 156.36 150.47L156.28 150.29C156.315 150.412 156.366 150.53 156.43 150.64C156.57 151.02 156.71 151.41 156.83 151.8C157.069 152.616 157.25 153.448 157.37 154.29V153.89V154.17C157.386 154.567 157.542 154.946 157.81 155.24C158.052 155.46 158.356 155.603 158.68 155.65C159.038 155.702 159.403 155.62 159.705 155.421C160.007 155.222 160.226 154.919 160.32 154.57C160.475 153.696 160.703 152.836 161 152C161.16 151.58 161.32 151.15 161.49 150.73C161.54 150.64 161.58 150.54 161.63 150.44C161.68 150.34 161.86 150.16 161.57 150.49C161.69 150.38 161.65 150.41 161.44 150.58C161.23 150.75 161.13 150.7 161.28 150.66L160.88 150.72H161.08L160.68 150.66C160.83 150.66 160.77 150.66 160.49 150.53C160.21 150.4 160.17 150.32 160.28 150.44C160.562 150.72 160.943 150.877 161.34 150.88C161.636 150.88 161.926 150.792 162.173 150.627C162.419 150.462 162.611 150.228 162.725 149.954C162.838 149.68 162.868 149.378 162.81 149.088C162.752 148.797 162.61 148.53 162.4 148.32C162.213 148.125 161.989 147.97 161.741 147.863C161.492 147.757 161.225 147.703 160.955 147.703C160.685 147.703 160.418 147.757 160.169 147.863C159.921 147.97 159.697 148.125 159.51 148.32C159.02 148.903 158.662 149.586 158.46 150.32C157.981 151.454 157.629 152.638 157.41 153.85L160.35 154.24C160.113 152.155 159.521 150.125 158.6 148.24C158.398 147.896 158.067 147.646 157.681 147.545C157.295 147.444 156.885 147.499 156.54 147.7C156.217 147.906 155.983 148.226 155.883 148.596C155.784 148.965 155.825 149.359 156 149.7Z" fill="white"/>
<path opacity="0.3" d="M185.32 73.26C185.45 75.0742 185.99 76.8353 186.9 78.41C187.298 79.192 187.903 79.8493 188.65 80.31C189.115 80.5653 189.646 80.6724 190.174 80.617C190.701 80.5616 191.199 80.3463 191.6 80C192.89 78.92 192.98 76.89 193.15 75.35C193.335 73.5347 193.335 71.7053 193.15 69.89C193.14 69.4954 192.979 69.1197 192.7 68.8406C192.42 68.5614 192.045 68.4001 191.65 68.39C191.253 68.3926 190.873 68.5515 190.592 68.8323C190.312 69.113 190.153 69.493 190.15 69.89C190.293 71.3256 190.317 72.7706 190.22 74.21C190.17 74.95 190.11 75.55 190.01 76.21C190.01 76.52 189.91 76.83 189.84 77.14C189.84 77.26 189.77 77.38 189.74 77.5C189.67 77.79 189.87 77.32 189.74 77.59C189.74 77.67 189.49 77.93 189.74 77.68C189.65 77.78 189.45 77.89 189.74 77.74C190.03 77.59 189.95 77.66 189.84 77.74C189.73 77.82 189.77 77.74 189.94 77.74C190.11 77.74 190.36 77.89 190.09 77.74C190.3 77.85 190.04 77.74 189.97 77.63C189.9 77.52 189.7 77.27 189.86 77.5C189.679 77.2444 189.516 76.9772 189.37 76.7C188.834 75.6541 188.495 74.5185 188.37 73.35C188.37 72.9522 188.212 72.5707 187.931 72.2894C187.649 72.0081 187.268 71.85 186.87 71.85C186.472 71.85 186.091 72.0081 185.809 72.2894C185.528 72.5707 185.37 72.9522 185.37 73.35L185.32 73.26Z" fill="white"/>
<path opacity="0.3" d="M196 84.1799C196.269 85.4933 196.678 86.774 197.22 87.9999C197.631 89.1918 198.316 90.2706 199.22 91.1499C199.533 91.4271 199.908 91.6266 200.312 91.7326C200.717 91.8385 201.141 91.8479 201.55 91.7599C202.252 91.5738 202.856 91.1267 203.24 90.5099C203.845 89.4304 204.21 88.2332 204.31 86.9999C204.57 85.4507 204.63 83.8746 204.49 82.3099C204.49 81.9121 204.332 81.5306 204.051 81.2493C203.769 80.968 203.388 80.8099 202.99 80.8099C202.592 80.8099 202.211 80.968 201.929 81.2493C201.648 81.5306 201.49 81.9121 201.49 82.3099C201.558 83.0111 201.582 83.7158 201.56 84.4199C201.56 84.7699 201.56 85.1199 201.5 85.4799C201.5 85.6499 201.5 85.8299 201.45 85.9999C201.4 86.1699 201.45 86.0999 201.45 85.9999C201.45 86.0899 201.45 86.1899 201.45 86.2899C201.344 86.9872 201.187 87.6758 200.98 88.3499L200.88 88.6499C200.79 88.9399 201.01 88.3999 200.83 88.7399C200.807 88.7919 200.78 88.8421 200.75 88.8899C200.66 89.0199 200.67 89.0099 200.8 88.8899L200.66 89.0399C200.83 88.9199 200.86 88.8899 200.77 88.9499C200.68 89.0099 200.72 88.9499 200.91 88.9499C200.75 88.9499 200.78 88.9499 201.01 88.9499H201L201.15 89.0099C201.02 88.9299 201.02 88.9399 201.15 89.0099C201.089 88.9619 201.032 88.9083 200.98 88.8499C200.72 88.6099 201.11 89.0799 200.91 88.7799C200.562 88.233 200.255 87.6615 199.99 87.0699L199.81 86.6799C199.92 86.9299 199.71 86.4199 199.69 86.3699C199.57 86.0499 199.46 85.7399 199.35 85.3699C199.15 84.7129 198.986 84.0452 198.86 83.3699C198.742 82.9955 198.483 82.6816 198.138 82.4949C197.792 82.3083 197.388 82.2634 197.01 82.3699C196.642 82.4941 196.335 82.7526 196.149 83.0938C195.964 83.435 195.914 83.8337 196.01 84.2099L196 84.1799Z" fill="white"/>
<defs>
<linearGradient id="paint0_linear_757_1122" x1="76.42" y1="143.52" x2="226.72" y2="143.52" gradientUnits="userSpaceOnUse">
<stop stop-color="#BEE0FF"/>
<stop offset="1" stop-color="#B4B4FF"/>
</linearGradient>
<linearGradient id="paint1_linear_757_1122" x1="4430.62" y1="9430.99" x2="6021.03" y2="9430.99" gradientUnits="userSpaceOnUse">
<stop stop-color="#BEE0FF"/>
<stop offset="1" stop-color="#B4B4FF"/>
</linearGradient>
<linearGradient id="paint2_linear_757_1122" x1="6334.76" y1="9426.98" x2="7925.17" y2="9426.98" gradientUnits="userSpaceOnUse">
<stop stop-color="#BEE0FF"/>
<stop offset="1" stop-color="#B4B4FF"/>
</linearGradient>
</defs>
</svg>
