<svg width="223" height="67" viewBox="0 0 223 67" fill="none" xmlns="http://www.w3.org/2000/svg">
<rect width="223" height="67" rx="33.5" fill="#404DB7"/>
<path d="M32.0112 32.1123L32.1821 39.3389C32.2065 39.583 32.3774 39.7539 32.6948 39.8516C32.9878 39.9492 33.354 39.9736 33.7935 39.9248C34.1841 39.876 34.5259 39.8027 34.8677 39.6807C35.1851 39.583 35.356 39.4365 35.356 39.2412L35.0142 26.0576C35.0142 25.96 34.9409 25.8623 34.8433 25.7891C34.7456 25.7158 34.5991 25.667 34.4526 25.6182C34.3062 25.5693 34.1353 25.5449 33.9399 25.5449C33.7446 25.5449 33.5493 25.5693 33.354 25.5693C32.9634 25.6182 32.6216 25.7158 32.3286 25.8623C32.0356 26.0088 31.8892 26.1553 31.8892 26.3506L31.9868 29.9395L30.1802 30.0371C30.1802 29.5488 30.1558 29.0361 30.1313 28.5234C30.0825 28.0107 29.8384 27.5957 29.4233 27.2539C28.9839 26.9365 28.4224 26.8145 27.6899 26.8633L22.563 27.3027C22.0503 27.4492 21.7085 27.6689 21.562 28.0107C21.3911 28.3525 21.3423 28.7676 21.3911 29.3047C21.4399 30.4521 21.4644 31.3799 21.5132 32.0635C21.5376 32.7715 21.562 33.333 21.5864 33.748C21.5864 34.1631 21.6108 34.4561 21.6353 34.6514C21.6353 34.8467 21.6597 34.9932 21.6841 35.0908C21.7573 35.6279 21.9771 36.0186 22.3188 36.2871C22.6606 36.5801 23.1489 36.7021 23.7837 36.7021C24.0278 36.7021 24.3452 36.7021 24.7114 36.7021C25.0532 36.7021 25.4438 36.6777 25.8345 36.6289C26.2251 36.6045 26.6401 36.5801 27.0552 36.5312C27.4702 36.4824 27.8853 36.4336 28.2759 36.3359C28.8618 36.165 29.2769 35.9453 29.5698 35.6523C29.8384 35.3838 29.9849 34.9932 30.0337 34.5049C30.0337 33.7236 30.0337 32.9424 30.0825 32.1611L32.0112 32.1123ZM36.1372 25.7646L36.479 40.6572C36.479 40.9258 36.6255 41.0967 36.9673 41.1699C37.3091 41.2676 37.6997 41.292 38.1392 41.2432C38.481 41.1943 38.8228 41.1211 39.1401 40.999C39.4331 40.9014 39.604 40.7549 39.604 40.5596L39.3599 25.5205C39.3599 25.3252 39.1646 25.1787 38.8228 25.1055C38.481 25.0322 38.0903 25.0078 37.6753 25.0078C37.2603 25.0566 36.894 25.1543 36.6011 25.2764C36.2837 25.4229 36.1372 25.5693 36.1372 25.7646ZM24.6138 29.207L26.7134 29.0117C26.7378 29.3535 26.7622 29.7441 26.7866 30.208C26.811 30.6963 26.8354 31.1846 26.8354 31.6729V33.1377C26.8354 33.626 26.811 34.0166 26.811 34.3096L24.8579 34.5537C24.8091 33.5771 24.7603 32.7959 24.7358 32.1611C24.687 31.5264 24.6626 31.0137 24.6626 30.623C24.6382 30.2324 24.6138 29.9395 24.6138 29.7197C24.6138 29.5244 24.6138 29.3535 24.6138 29.207ZM45.1831 34.9688C45.7935 34.9688 46.4038 34.8711 47.0142 34.6514C47.6001 34.4561 48.1616 34.1387 48.6499 33.748C49.1382 33.3574 49.5288 32.8447 49.8706 32.2588C50.188 31.6729 50.3833 31.0137 50.4565 30.2568C50.5054 29.5244 50.4321 28.8408 50.2124 28.2549C49.9927 27.6689 49.6753 27.1807 49.2847 26.7656C48.8696 26.375 48.3813 26.0576 47.8198 25.8623C47.2583 25.667 46.6724 25.5449 46.0376 25.5449C45.4028 25.5449 44.7681 25.667 44.1821 25.8867C43.5718 26.1064 43.0347 26.4238 42.5464 26.8145C42.0581 27.2051 41.6675 27.6934 41.3501 28.2793C41.0327 28.8652 40.8374 29.5244 40.7886 30.2568C40.7153 30.9893 40.7642 31.6484 40.9595 32.2344C41.1304 32.8203 41.3989 33.3086 41.7896 33.6992C42.1802 34.1143 42.644 34.4316 43.23 34.6514C43.7915 34.8711 44.4507 34.9688 45.1831 34.9688ZM45.769 27.6445C46.2085 27.6445 46.5747 27.9131 46.8188 28.4014C47.063 28.8896 47.1851 29.5732 47.1606 30.4033C47.1362 31.1357 46.9897 31.7461 46.6968 32.2344C46.4038 32.7227 45.9888 32.9668 45.4761 32.9668C45.0854 32.9668 44.7437 32.7715 44.4507 32.3809C44.1333 31.9902 43.9868 31.3311 44.0356 30.4033C44.0601 29.4756 44.2554 28.792 44.5972 28.3281C44.939 27.8887 45.3296 27.6445 45.769 27.6445ZM53.1421 25.4717L53.3862 36.6533C53.3862 36.9219 53.5571 37.0928 53.8989 37.166C54.2407 37.2637 54.6069 37.2637 55.0464 37.2148C55.4126 37.1904 55.7544 37.1172 56.0962 36.9951C56.438 36.873 56.6089 36.7266 56.6089 36.5557L56.4136 25.2764C56.4136 25.0322 56.2183 24.8857 55.8521 24.8125C55.4858 24.7393 55.0952 24.7148 54.7046 24.7393C54.2896 24.7881 53.9233 24.8857 53.606 25.0078C53.2886 25.1543 53.1421 25.3008 53.1421 25.4717ZM50.2612 43.7334H50.2368L51.8481 43.6602L56.4624 43.3916C56.8286 43.3916 57.1216 43.2695 57.3169 43.0498C57.5122 42.8301 57.6343 42.5859 57.6343 42.3418C57.6343 42.0977 57.5366 41.8535 57.3413 41.6582C57.146 41.4629 56.8286 41.3652 56.438 41.3896L51.4819 41.585L51.7261 37.0439C51.7261 36.8242 51.5796 36.6533 51.2378 36.5068C50.896 36.3604 50.5298 36.2871 50.1392 36.2383C49.9194 36.2383 49.6997 36.2627 49.5044 36.2627C49.3091 36.2871 49.1138 36.3115 48.9673 36.3604C48.7964 36.4092 48.6499 36.4824 48.5522 36.5801C48.4546 36.6777 48.4058 36.7754 48.4058 36.8975L48.064 42.5615C48.0396 42.7568 48.0884 42.9521 48.2349 43.0986C48.3569 43.2695 48.5278 43.3916 48.7476 43.4893C48.9429 43.5869 49.187 43.6602 49.4556 43.709C49.7241 43.7578 49.9927 43.7822 50.2612 43.7334ZM66.6196 37.2881L63.9829 37.1904C63.6167 37.1904 63.3481 37.3125 63.2017 37.5322C63.0552 37.752 62.9819 37.9961 63.0063 38.2646C63.0063 38.5088 63.0796 38.7529 63.2505 38.9727C63.4214 39.2168 63.6655 39.3389 64.0073 39.3389C64.2026 39.3633 64.5688 39.3877 65.106 39.3877C65.6187 39.4121 66.2046 39.4365 66.8638 39.4365C67.5229 39.4609 68.231 39.4609 68.9634 39.4609C69.6958 39.4609 70.4038 39.4365 71.0874 39.3877C71.7466 39.3633 72.3325 39.3145 72.8452 39.2412C73.3335 39.168 73.6997 39.0703 73.9194 38.9482C74.2368 38.875 74.4565 38.7285 74.603 38.4844C74.7251 38.2646 74.7739 38.0449 74.7251 37.8008C74.6519 37.5566 74.481 37.3369 74.2368 37.1416C73.9927 36.9463 73.6509 36.8975 73.2358 36.9463H73.2603C72.6987 37.0439 72.1372 37.1172 71.5757 37.166C71.0142 37.2393 70.4526 37.2637 69.8667 37.2393L69.9644 35.2861C70.3306 35.1396 70.6724 34.9688 71.0142 34.749C71.4048 34.4805 71.7466 34.1387 72.0151 33.748C72.2837 33.3574 72.4546 32.8936 72.5034 32.3809C72.5522 31.8438 72.5034 31.3799 72.3569 30.9648C72.186 30.5742 71.9419 30.2324 71.6245 29.9639C71.2827 29.7197 70.8921 29.5244 70.4282 29.3779C69.9644 29.2559 69.4517 29.1826 68.9146 29.1826C68.3286 29.1826 67.7915 29.2803 67.2788 29.4268C66.7417 29.5732 66.2778 29.793 65.8872 30.0615C65.4722 30.3545 65.1304 30.6719 64.8862 31.0625C64.6421 31.4531 64.4956 31.8926 64.4468 32.3809C64.3491 33.4062 64.6177 34.1875 65.2036 34.749C65.5698 35.1152 66.0581 35.3594 66.6685 35.4814L66.6196 37.2881ZM75.311 25.7158L75.6528 40.6572C75.6528 40.9258 75.8237 41.0967 76.1655 41.1699C76.5073 41.2676 76.8979 41.292 77.3618 41.2432C77.728 41.1943 78.0698 41.1211 78.3872 40.999C78.7046 40.9014 78.8755 40.7549 78.8755 40.5596L78.729 33.7236L81.1704 33.5283C81.5366 33.5039 81.8296 33.3574 82.0249 33.1133C82.2202 32.8691 82.3179 32.625 82.3179 32.332C82.2935 32.0391 82.1958 31.7949 82.0005 31.5752C81.8052 31.3555 81.5122 31.2578 81.1704 31.2822L78.7046 31.4531L78.5825 25.5693C78.5825 25.374 78.3872 25.2275 78.0454 25.1299C77.7036 25.0322 77.313 25.0078 76.9224 25.0078C76.4829 25.0566 76.1167 25.1299 75.7993 25.252C75.4575 25.374 75.311 25.5205 75.311 25.7158ZM66.8638 26.1797H64.5933C64.1538 26.1797 63.8608 26.3018 63.6899 26.5459C63.519 26.79 63.4458 27.0342 63.4702 27.3027C63.4702 27.5957 63.5923 27.8643 63.812 28.084C64.0073 28.3281 64.3247 28.4258 64.7397 28.4258L71.9175 28.2305C72.2837 28.2305 72.5767 28.1328 72.772 27.9131C72.9673 27.6934 73.0649 27.4492 73.1138 27.1562C73.1138 26.9121 73.0405 26.668 72.8696 26.4238C72.6987 26.2041 72.4302 26.082 72.064 26.082L70.1841 26.1064L69.8423 23.7139C69.7935 23.3965 69.5737 23.2012 69.2075 23.1035C68.8169 23.0303 68.4263 23.0303 67.9868 23.1035C67.5962 23.1768 67.2544 23.2988 66.9614 23.4697C66.6685 23.6406 66.522 23.8115 66.522 24.0068L66.8638 26.1797ZM68.5483 31.1602C68.8901 31.1602 69.1587 31.2822 69.354 31.5264C69.5493 31.7705 69.6226 32.1123 69.5737 32.5273C69.5249 32.8691 69.4272 33.1621 69.2319 33.3818C69.0366 33.6016 68.7437 33.6992 68.353 33.6992C68.0601 33.6992 67.8159 33.6016 67.5962 33.3818C67.3765 33.1865 67.2788 32.8691 67.3276 32.4785C67.3521 32.0146 67.4741 31.6729 67.7183 31.4775C67.9624 31.2822 68.231 31.1602 68.5483 31.1602ZM96.0024 31.2822L93.5854 31.5508C93.1948 31.5996 92.9263 31.7217 92.7798 31.9414C92.6089 32.1855 92.5356 32.4297 92.5845 32.6738C92.5845 32.9424 92.7065 33.1865 92.9507 33.4062C93.1704 33.6504 93.4878 33.748 93.8784 33.6992L96.0513 33.5039L96.1001 36.5801C96.1001 36.8486 96.271 37.0195 96.6128 37.1172C96.9546 37.2148 97.3452 37.2393 97.7847 37.1904C98.1509 37.166 98.5171 37.0928 98.8589 36.9463C99.2007 36.7998 99.3716 36.6533 99.3716 36.4824L99.1763 25.3008C99.1763 25.0566 98.981 24.8857 98.6147 24.7881C98.2485 24.6904 97.8579 24.666 97.4673 24.6904C97.0522 24.7393 96.686 24.8613 96.3931 25.0078C96.1001 25.1543 95.9536 25.3252 95.9536 25.4961L95.9048 27.2539L93.5854 27.4736C93.1948 27.498 92.9263 27.6201 92.7798 27.8643C92.6821 27.9863 92.6333 28.084 92.6089 28.1816C92.6089 27.9863 92.5845 27.791 92.5845 27.5469C92.5356 27.0342 92.2915 26.6191 91.8765 26.2773C91.437 25.96 90.8755 25.8379 90.1431 25.8867L84.5278 26.3262C84.0151 26.4727 83.6733 26.6924 83.5269 27.0342C83.356 27.376 83.3071 27.791 83.356 28.3281C83.4048 29.4756 83.4292 30.3545 83.478 30.9404C83.5024 31.5508 83.5269 31.9902 83.5513 32.2832C83.5513 32.5762 83.5757 32.7715 83.6001 32.8691C83.6001 32.9668 83.6245 33.04 83.6489 33.1377C83.7222 33.6748 83.9419 34.0654 84.2837 34.334C84.6255 34.627 85.1138 34.749 85.7485 34.749C85.9927 34.749 86.3345 34.749 86.7495 34.749C87.1401 34.749 87.5796 34.7246 88.0435 34.6758C88.5073 34.6514 88.9712 34.627 89.4351 34.5781C89.8989 34.5293 90.3384 34.4805 90.729 34.3828C91.3149 34.2119 91.73 33.9922 92.0229 33.6992C92.2915 33.4307 92.438 33.04 92.4868 32.5518C92.4868 32.0391 92.4868 31.5752 92.5112 31.1602C92.5356 30.7695 92.5601 30.3789 92.5845 29.9883C92.5845 29.6465 92.6089 29.2803 92.6089 28.8896C92.6577 29.085 92.7798 29.2803 92.9507 29.4268C93.1948 29.6465 93.5122 29.7197 93.9517 29.6221L95.9536 29.4268L96.0024 31.2822ZM92.731 43.7334H92.7065L94.3179 43.6602L98.9321 43.3916C99.2983 43.3916 99.5913 43.2695 99.7866 43.0498C99.9819 42.8301 100.104 42.5859 100.104 42.3418C100.104 42.0977 100.006 41.8535 99.811 41.6582C99.6157 41.4629 99.2983 41.3652 98.9077 41.3896L93.9517 41.585L94.1958 37.0439C94.1958 36.8242 94.0493 36.6533 93.7075 36.5068C93.3657 36.3604 92.9995 36.2871 92.6089 36.2383C92.3892 36.2383 92.1694 36.2627 91.9741 36.2627C91.7788 36.2871 91.5835 36.3115 91.437 36.3604C91.2661 36.4092 91.1196 36.4824 91.022 36.5801C90.9243 36.6777 90.8755 36.7754 90.8755 36.8975L90.5337 42.5615C90.5093 42.7568 90.5581 42.9521 90.7046 43.0986C90.8267 43.2695 90.9976 43.3916 91.2173 43.4893C91.4126 43.5869 91.6567 43.6602 91.9253 43.709C92.1938 43.7578 92.4624 43.7822 92.731 43.7334ZM86.5786 28.2305L89.1665 28.0352C89.1909 28.377 89.2153 28.7188 89.2397 29.085C89.2642 29.4756 89.2886 29.8418 89.2886 30.2324V31.3555C89.2886 31.7217 89.2642 32.0635 89.2642 32.3564L86.8228 32.6006C86.7739 31.624 86.7251 30.8916 86.7007 30.3545C86.6519 29.8418 86.6274 29.4512 86.6274 29.1826C86.603 28.9141 86.5786 28.7188 86.5786 28.5967C86.5786 28.499 86.5786 28.377 86.5786 28.2305ZM106.904 35.0908C107.514 35.0908 108.125 34.9932 108.735 34.7734C109.321 34.5781 109.882 34.2607 110.371 33.8701C110.859 33.4795 111.25 32.9668 111.591 32.3809C111.909 31.7949 112.104 31.1357 112.177 30.3789C112.226 29.6465 112.153 28.9629 111.933 28.377C111.713 27.791 111.396 27.3027 111.005 26.8877C110.59 26.4971 110.102 26.1797 109.541 25.9844C108.979 25.7891 108.393 25.667 107.758 25.667C107.124 25.667 106.489 25.7891 105.903 26.0088C105.292 26.2285 104.755 26.5459 104.267 26.9365C103.779 27.3271 103.388 27.8154 103.071 28.4014C102.753 28.9873 102.558 29.6465 102.509 30.3789C102.436 31.1113 102.485 31.7705 102.68 32.3564C102.851 32.9424 103.12 33.4307 103.51 33.8213C103.901 34.2363 104.365 34.5537 104.951 34.7734C105.512 34.9932 106.171 35.0908 106.904 35.0908ZM107.49 27.7666C107.929 27.7666 108.295 28.0352 108.54 28.5234C108.784 29.0117 108.906 29.6953 108.881 30.5254C108.857 31.2578 108.71 31.8682 108.417 32.3564C108.125 32.8447 107.709 33.0889 107.197 33.0889C106.806 33.0889 106.464 32.8936 106.171 32.5029C105.854 32.1123 105.708 31.4531 105.756 30.5254C105.781 29.5977 105.976 28.9141 106.318 28.4502C106.66 28.0107 107.05 27.7666 107.49 27.7666ZM101.85 37.874C101.508 37.9229 101.289 38.0449 101.142 38.2646C100.996 38.5088 100.947 38.7529 100.996 38.9971C100.996 39.2656 101.093 39.5098 101.289 39.7295C101.484 39.9736 101.752 40.0713 102.119 40.0225L112.104 39.7295C112.495 39.7295 112.763 39.6074 112.958 39.3633C113.154 39.1436 113.251 38.8994 113.251 38.6553C113.227 38.4111 113.129 38.167 112.934 37.9473C112.739 37.752 112.47 37.6299 112.128 37.6299L101.85 37.874ZM119.514 38.8994L115.632 38.9971C115.291 39.0459 115.071 39.168 114.924 39.3877C114.778 39.6074 114.705 39.8516 114.753 40.1201C114.753 40.3887 114.851 40.6328 115.046 40.8525C115.242 41.0967 115.51 41.1943 115.876 41.1455L125.862 40.8525C126.252 40.8525 126.521 40.7305 126.716 40.4863C126.912 40.2666 127.009 40.0225 127.009 39.7783C126.985 39.5098 126.887 39.2656 126.692 39.0459C126.497 38.8262 126.228 38.7041 125.886 38.7041L122.883 38.8506L123.079 34.3096C123.079 34.2607 123.054 34.2119 123.054 34.1631C123.665 34.0654 124.25 33.9678 124.788 33.8701C125.154 33.7969 125.398 33.626 125.544 33.3818C125.667 33.1377 125.715 32.8936 125.667 32.6006C125.569 32.2832 125.422 32.0146 125.178 31.7949C124.934 31.5996 124.592 31.5264 124.202 31.624C123.542 31.8438 122.859 32.0146 122.175 32.1123C121.492 32.21 120.833 32.2832 120.198 32.3076L119.856 30.7451L122.932 30.3057C123.958 30.2568 124.543 29.8906 124.641 29.1826L124.885 26.0576C124.885 25.8867 124.812 25.7158 124.69 25.5693C124.543 25.4229 124.373 25.2764 124.177 25.1543C123.958 25.0566 123.713 24.959 123.445 24.8857C123.152 24.8369 122.883 24.7881 122.615 24.7881C121.76 24.8125 121.052 24.8369 120.515 24.8369C119.954 24.8613 119.49 24.8857 119.148 24.8857C118.782 24.9102 118.489 24.9346 118.269 24.9346C118.025 24.9346 117.83 24.9346 117.634 24.9346C117.219 24.959 116.926 25.0811 116.755 25.3252C116.56 25.5693 116.487 25.8135 116.511 26.082C116.511 26.375 116.609 26.6191 116.829 26.8633C117.048 27.1074 117.341 27.1807 117.732 27.083C118.538 27.0342 119.221 27.0098 119.807 26.9854C120.393 26.9609 120.979 26.9365 121.565 26.9365C121.565 27.2295 121.541 27.498 121.541 27.7422C121.541 27.9863 121.516 28.2061 121.516 28.4014L118.44 28.7432C117.927 28.8164 117.488 28.9873 117.146 29.2559C116.804 29.5488 116.633 29.8906 116.633 30.3057C116.633 30.501 116.633 30.7207 116.682 30.9893C116.731 31.2578 116.78 31.5264 116.853 31.8193C116.902 32.1123 116.975 32.3809 117.024 32.6494C117.073 32.918 117.146 33.1377 117.195 33.2842C117.292 33.6748 117.512 33.9678 117.903 34.1631C118.293 34.3584 118.733 34.4561 119.27 34.4561H119.734L119.514 38.8994ZM138.753 32.8447L134.408 32.9424C134.066 32.9912 133.846 33.1133 133.7 33.333C133.553 33.5527 133.48 33.7969 133.529 34.0654C133.529 34.334 133.626 34.5781 133.822 34.7979C134.017 35.042 134.286 35.1396 134.652 35.0908L144.637 34.7979C145.028 34.7979 145.296 34.6758 145.492 34.4316C145.687 34.2119 145.785 33.9678 145.785 33.7236C145.76 33.4551 145.663 33.2109 145.467 32.9912C145.272 32.7715 145.003 32.6494 144.662 32.6494L142.049 32.7959L142.269 30.6963C142.416 30.6719 142.586 30.623 142.757 30.5742C142.904 30.5498 143.05 30.4766 143.172 30.3545C143.294 30.2568 143.392 30.1348 143.465 29.9883C143.539 29.8418 143.587 29.6953 143.612 29.5488C143.636 29.4023 143.636 29.2803 143.636 29.1582C143.587 28.8896 143.417 28.6943 143.148 28.5479C142.879 28.4258 142.562 28.4258 142.196 28.5234C141.903 28.6211 141.585 28.6699 141.219 28.7188C140.829 28.7676 140.438 28.8164 140.023 28.8408C139.608 28.8896 139.193 28.8896 138.802 28.8896C138.412 28.8896 138.045 28.8896 137.752 28.8652L137.386 25.667C137.972 25.6182 138.656 25.5693 139.461 25.5205C140.243 25.4961 141.073 25.4473 141.903 25.374C142.22 25.3496 142.464 25.2275 142.635 25.0078C142.806 24.7881 142.904 24.5439 142.904 24.251C142.904 24.0068 142.806 23.7627 142.635 23.543C142.44 23.3477 142.147 23.2256 141.732 23.2256L135.58 23.5918C135.213 23.6406 134.92 23.7139 134.725 23.8604C134.505 24.0068 134.334 24.2021 134.237 24.3975C134.115 24.5928 134.042 24.8125 134.042 25.0566C134.017 25.3008 134.017 25.5205 134.066 25.7646C134.066 26.2773 134.09 26.6924 134.115 27.0098C134.139 27.3271 134.164 27.6201 134.212 27.8887C134.261 28.1572 134.31 28.4258 134.359 28.6943C134.408 28.9873 134.505 29.3291 134.603 29.7197C134.676 30.1104 134.92 30.4033 135.311 30.623C135.702 30.8672 136.214 30.9893 136.825 31.0137C137.24 31.0625 137.704 31.0625 138.241 31.0381H138.9L138.753 32.8447ZM136.654 40.7305C136.092 40.7793 135.653 40.9502 135.36 41.2188C135.067 41.4873 134.92 41.8047 134.92 42.1953C134.92 42.4395 134.92 42.7324 134.969 43.0498C135.018 43.3672 135.067 43.6846 135.14 44.002C135.213 44.3193 135.287 44.6123 135.384 44.9053C135.482 45.1982 135.58 45.418 135.702 45.5889C135.897 46.2969 136.507 46.6387 137.484 46.6387C138.436 46.6387 139.364 46.5654 140.243 46.4189C141.122 46.2725 141.976 46.1016 142.757 45.9062C143.075 45.833 143.294 45.6621 143.417 45.3936C143.539 45.1494 143.563 44.8809 143.514 44.6367C143.441 44.3193 143.27 44.0752 143.026 43.9043C142.757 43.7334 142.44 43.6846 142.074 43.7578C141.439 43.9287 140.853 44.0752 140.267 44.1973C139.681 44.3438 139.095 44.417 138.485 44.4414C138.387 44.2217 138.29 43.9775 138.241 43.6846C138.167 43.416 138.119 43.0742 138.119 42.6348C138.875 42.5615 139.51 42.4883 139.999 42.4395C140.487 42.3906 140.877 42.3662 141.17 42.3174C141.463 42.293 141.708 42.2686 141.878 42.2441C142.025 42.2441 142.171 42.2197 142.269 42.1953C142.782 42.1221 143.197 42 143.49 41.8047C143.783 41.6338 143.954 41.3652 144.051 40.9746C144.1 40.4375 144.149 39.9004 144.198 39.3633C144.247 38.8262 144.271 38.2891 144.32 37.8008C144.32 37.4102 144.125 37.0684 143.734 36.7998C143.343 36.5557 142.831 36.4336 142.196 36.4824L135.848 36.6777C135.433 36.7021 135.14 36.8242 134.945 37.0439C134.75 37.2881 134.676 37.5322 134.676 37.8008C134.676 38.0693 134.774 38.3135 134.969 38.5332C135.165 38.7773 135.482 38.875 135.897 38.8262L141.122 38.6797L141 40.2666L136.654 40.7305ZM151.315 37.5322C151.925 37.5322 152.536 37.4102 153.146 37.166C153.756 36.9219 154.318 36.5557 154.806 36.0674C155.294 35.5791 155.685 34.9932 156.027 34.3096C156.344 33.626 156.54 32.8447 156.588 31.9658C156.637 31.0869 156.54 30.3057 156.344 29.6221C156.125 28.9385 155.807 28.3525 155.417 27.8643C155.001 27.4004 154.513 27.0342 153.952 26.79C153.39 26.5459 152.804 26.3994 152.169 26.3994C151.535 26.3994 150.9 26.5459 150.314 26.79C149.704 27.0586 149.167 27.4248 148.678 27.9131C148.19 28.4014 147.775 28.9873 147.458 29.6709C147.14 30.3545 146.969 31.1357 146.92 31.9658C146.872 32.8203 146.92 33.5771 147.091 34.2607C147.262 34.9443 147.531 35.5303 147.921 36.0186C148.312 36.5068 148.776 36.8975 149.362 37.1416C149.923 37.4102 150.583 37.5322 151.315 37.5322ZM151.901 28.499C152.34 28.499 152.707 28.8408 152.951 29.5C153.195 30.1592 153.292 31.0381 153.292 32.1123C153.292 32.6006 153.244 33.0645 153.17 33.4795C153.073 33.8945 152.975 34.2607 152.829 34.5537C152.682 34.8467 152.487 35.0908 152.292 35.2617C152.096 35.457 151.852 35.5303 151.608 35.5303C151.413 35.5303 151.242 35.4814 151.071 35.335C150.875 35.1885 150.729 34.9932 150.583 34.7002C150.436 34.4072 150.338 34.0654 150.265 33.626C150.167 33.2109 150.143 32.6982 150.167 32.1123C150.192 30.9404 150.387 30.0615 150.729 29.4268C151.071 28.8164 151.461 28.499 151.901 28.499ZM158.688 25.7158L159.079 40.6572C159.079 40.9258 159.25 41.0967 159.591 41.1699C159.933 41.2676 160.324 41.292 160.763 41.2432C161.105 41.1943 161.447 41.1211 161.764 40.999C162.082 40.9014 162.252 40.7549 162.252 40.5596L162.13 32.3076L164.669 32.1123C165.06 32.1123 165.353 31.9902 165.548 31.7461C165.744 31.502 165.866 31.2578 165.866 30.9648C165.866 30.6963 165.744 30.4521 165.548 30.208C165.353 29.9883 165.084 29.8662 164.743 29.8662L162.082 30.0371L162.008 25.5693C162.008 25.374 161.813 25.2275 161.471 25.1299C161.129 25.0322 160.739 25.0078 160.324 25.0078C159.884 25.0566 159.518 25.1299 159.176 25.252C158.834 25.374 158.688 25.5205 158.688 25.7158ZM173.618 26.3506L167.758 26.5947C167.343 26.6191 167.05 26.7412 166.855 26.9609C166.66 27.2051 166.586 27.4492 166.611 27.7178C166.611 27.9863 166.708 28.2305 166.928 28.4502C167.124 28.6943 167.417 28.792 167.807 28.7432L172.275 28.5234L170.81 37.6299C170.81 37.874 170.932 38.0693 171.201 38.2158C171.445 38.3623 171.762 38.46 172.128 38.5088C172.543 38.582 172.958 38.582 173.349 38.4844C173.74 38.3867 173.959 38.2158 174.033 37.9229L175.742 27.5225C175.742 27.4004 175.668 27.2539 175.546 27.083C175.424 26.9121 175.253 26.7656 175.009 26.6191C174.643 26.4238 174.179 26.3262 173.618 26.3506ZM178.037 25.7158L178.427 40.6572C178.427 40.9258 178.598 41.0967 178.94 41.1699C179.282 41.2676 179.672 41.292 180.112 41.2432C180.454 41.1943 180.795 41.1211 181.113 40.999C181.43 40.9014 181.601 40.7549 181.601 40.5596L181.479 32.3076L184.018 32.1123C184.409 32.1123 184.702 31.9902 184.897 31.7461C185.092 31.502 185.214 31.2578 185.214 30.9648C185.214 30.6963 185.092 30.4521 184.897 30.208C184.702 29.9883 184.433 29.8662 184.091 29.8662L181.43 30.0371L181.357 25.5693C181.357 25.374 181.162 25.2275 180.82 25.1299C180.478 25.0322 180.087 25.0078 179.672 25.0078C179.233 25.0566 178.867 25.1299 178.525 25.252C178.183 25.374 178.037 25.5205 178.037 25.7158ZM192.966 26.3506L187.107 26.5947C186.692 26.6191 186.399 26.7412 186.204 26.9609C186.008 27.2051 185.935 27.4492 185.959 27.7178C185.959 27.9863 186.057 28.2305 186.277 28.4502C186.472 28.6943 186.765 28.792 187.156 28.7432L191.624 28.5234L190.159 37.6299C190.159 37.874 190.281 38.0693 190.549 38.2158C190.793 38.3623 191.111 38.46 191.477 38.5088C191.892 38.582 192.307 38.582 192.698 38.4844C193.088 38.3867 193.308 38.2158 193.381 37.9229L195.09 27.5225C195.09 27.4004 195.017 27.2539 194.895 27.083C194.773 26.9121 194.602 26.7656 194.358 26.6191C193.992 26.4238 193.528 26.3262 192.966 26.3506ZM197.483 25.5449L197.727 40.5596C197.727 40.8281 197.898 40.999 198.24 41.0723C198.582 41.1699 198.948 41.1699 199.387 41.1211C199.753 41.0967 200.095 41.0234 200.437 40.9014C200.779 40.7793 200.95 40.6328 200.95 40.4619L200.754 25.3496C200.754 25.1055 200.559 24.959 200.193 24.8857C199.827 24.8125 199.436 24.7881 199.045 24.8125C198.63 24.8613 198.264 24.959 197.947 25.0811C197.629 25.2275 197.483 25.374 197.483 25.5449Z" fill="white"/>
</svg>
