<svg width="300" height="70" viewBox="0 0 300 70" fill="none" xmlns="http://www.w3.org/2000/svg">
<rect width="300" height="70" rx="35" fill="#404DB7"/>
<path d="M78.2725 28.498L72.665 28.7988C72.3213 28.8418 72.042 28.9492 71.8701 29.1426C71.6768 29.3359 71.5908 29.5293 71.5908 29.7441C71.5693 30.002 71.6338 30.2168 71.8057 30.3887C71.9775 30.5605 72.2139 30.6465 72.5361 30.6035L77.3701 30.3242C77.4131 30.7539 77.4346 31.1191 77.4775 31.4629C77.499 31.8066 77.5205 32.1504 77.542 32.4941C77.542 32.8379 77.542 33.1816 77.542 33.5254C77.5205 33.8906 77.499 34.2773 77.4561 34.6855C77.4346 34.9219 77.5635 35.0938 77.8643 35.2012C78.165 35.3301 78.4873 35.373 78.874 35.373C79.2178 35.373 79.5615 35.3301 79.8623 35.2012C80.1631 35.0938 80.335 34.9434 80.3779 34.7285C80.3779 34.2988 80.3994 33.8906 80.4209 33.5039C80.4209 33.1387 80.4209 32.752 80.4209 32.3652C80.4209 31.9785 80.3994 31.5488 80.3779 31.0977C80.335 30.6465 80.292 30.1309 80.249 29.5293C80.2275 29.3574 80.1631 29.207 80.0342 29.0781C79.9053 28.9492 79.7549 28.8203 79.583 28.7344C79.4111 28.6484 79.1963 28.584 78.9814 28.541C78.7451 28.498 78.5088 28.498 78.2725 28.498ZM75.5225 39.1543L75.0498 44.0742C75.0068 44.2461 75.1357 44.3965 75.3936 44.5039C75.6514 44.6113 75.9736 44.6758 76.3389 44.7188C76.7041 44.7617 77.0479 44.7188 77.3486 44.6328C77.6494 44.5469 77.8428 44.418 77.8857 44.2031L78.3584 39.1113L80.6787 39.0254C81.0439 39.0254 81.3018 38.918 81.4736 38.6816C81.6455 38.4668 81.7314 38.2305 81.7314 37.9727C81.71 37.7363 81.624 37.5215 81.4521 37.3066C81.2803 37.1133 81.0439 37.0059 80.7432 37.0059L71.6338 37.2637C71.3545 37.3281 71.1611 37.457 71.0537 37.6719C70.9248 37.8867 70.8818 38.1016 70.9248 38.3164C70.9248 38.5742 71.0107 38.8105 71.1826 39.0039C71.3545 39.1973 71.5908 39.2832 71.9131 39.2402L75.5225 39.1543ZM90.083 26.5215L85.2061 26.6934C84.8623 26.7363 84.6045 26.8438 84.4326 27.0371C84.2607 27.2305 84.1963 27.4453 84.2393 27.6602C84.2393 27.8965 84.3467 28.1113 84.54 28.3047C84.7334 28.498 84.9912 28.584 85.335 28.541L89.0088 28.3906L89.3096 32.7949C89.3311 33.0527 89.5029 33.2031 89.8037 33.2891C90.1045 33.375 90.4268 33.375 90.792 33.3105C91.1143 33.2676 91.415 33.1602 91.7158 33.0098C91.9951 32.8809 92.1455 32.709 92.1455 32.4941L91.9307 27.5527C91.8877 27.3809 91.8232 27.209 91.6943 27.0586C91.5654 26.9297 91.4365 26.8008 91.2646 26.7148C91.0928 26.6289 90.8994 26.5645 90.6846 26.5215C90.4697 26.4785 90.2764 26.4785 90.083 26.5215ZM83.874 34.7715C83.5732 34.8145 83.3799 34.9219 83.251 35.1152C83.1221 35.3301 83.0791 35.5449 83.1221 35.7598C83.1221 35.9961 83.208 36.2109 83.3799 36.4043C83.5518 36.6191 83.7881 36.7051 84.1104 36.6621L92.8975 36.4043C93.2412 36.4043 93.4775 36.2969 93.6494 36.082C93.8213 35.8887 93.9072 35.6738 93.9072 35.459C93.8857 35.2441 93.7998 35.0293 93.6279 34.8359C93.4561 34.6641 93.2197 34.5566 92.9189 34.5566L83.874 34.7715ZM85.8721 41.8828C85.3779 41.9258 84.9912 42.0762 84.7334 42.3125C84.4756 42.5488 84.3467 42.8281 84.3467 43.1719C84.3467 43.3867 84.3467 43.6445 84.3896 43.9238C84.4326 44.2031 84.4756 44.4824 84.54 44.7617C84.6045 45.041 84.6689 45.2988 84.7549 45.5566C84.8408 45.8145 84.9268 46.0078 85.0342 46.1582C85.2061 46.7812 85.7432 47.082 86.6025 47.082C87.4404 47.082 88.2568 47.0176 89.0303 46.8887C89.8037 46.7598 90.5557 46.6094 91.2432 46.4375C91.5225 46.373 91.7158 46.2227 91.8232 45.9863C91.9307 45.7715 91.9521 45.5352 91.9092 45.3203C91.8447 45.041 91.6943 44.8262 91.4795 44.6758C91.2432 44.5254 90.9639 44.4824 90.6416 44.5469C90.083 44.6973 89.5674 44.8262 89.0518 44.9336C88.5361 45.0625 88.0205 45.127 87.4834 45.1484C87.3975 44.9551 87.3115 44.7402 87.2686 44.4824C87.2041 44.2461 87.1611 43.9453 87.1611 43.5586C87.8271 43.4941 88.3857 43.4297 88.8154 43.3867C89.2451 43.3438 89.5889 43.3223 89.8467 43.2793C90.1045 43.2578 90.3193 43.2363 90.4697 43.2148C90.5986 43.2148 90.7275 43.1934 90.8135 43.1719C91.2646 43.1074 91.6299 43 91.8877 42.8281C92.1455 42.6777 92.2959 42.4414 92.3818 42.0977C92.4248 41.625 92.4678 41.1523 92.5107 40.6797C92.5537 40.207 92.5752 39.7344 92.6182 39.3047C92.6182 38.9609 92.4463 38.6602 92.1025 38.4238C91.7588 38.209 91.3076 38.1016 90.749 38.1445L85.1631 38.3164C84.7979 38.3379 84.54 38.4453 84.3682 38.6387C84.1963 38.8535 84.1318 39.0684 84.1318 39.3047C84.1318 39.541 84.2178 39.7559 84.3896 39.9492C84.5615 40.1641 84.8408 40.25 85.2061 40.207L89.8037 40.0781L89.6963 41.4746L85.8721 41.8828ZM108.247 37.2637L108.354 40.6582C108.376 40.873 108.526 41.0234 108.806 41.1094C109.085 41.1953 109.407 41.2168 109.794 41.1738C110.138 41.1309 110.438 41.0664 110.739 40.959C111.019 40.873 111.169 40.7441 111.169 40.5723L110.868 28.9707C110.868 28.8848 110.804 28.7988 110.718 28.7344C110.632 28.6699 110.503 28.627 110.374 28.584C110.245 28.541 110.095 28.5195 109.923 28.5195C109.751 28.5195 109.579 28.541 109.407 28.541C109.063 28.584 108.763 28.6699 108.505 28.7988C108.226 28.9277 108.097 29.0566 108.097 29.2285L108.118 31.5059L106.464 31.5918C106.421 31.5918 106.378 31.6133 106.356 31.6133L106.528 30.5605C106.55 30.4316 106.528 30.2383 106.442 30.002C106.356 29.7871 106.206 29.5938 105.97 29.4648C105.647 29.293 105.239 29.207 104.745 29.2285L100.104 29.4434C99.7393 29.4648 99.4814 29.5723 99.3096 29.7656C99.1377 29.9805 99.0732 30.1953 99.0947 30.4316C99.0947 30.668 99.1807 30.8828 99.374 31.0762C99.5459 31.291 99.8037 31.377 100.147 31.334L103.606 31.1406L102.317 39.1543C102.317 39.3691 102.446 39.541 102.704 39.6699C102.94 39.8203 103.22 39.9062 103.542 39.9492C103.907 40.0137 104.251 39.9922 104.552 39.9062C104.853 39.8203 105.046 39.6699 105.11 39.4121L106.077 33.3105C106.249 33.3965 106.464 33.4395 106.743 33.3965L108.183 33.3535L108.247 35.459L106.593 35.5449C106.249 35.5879 106.013 35.6953 105.862 35.8887C105.712 36.082 105.647 36.2754 105.69 36.4902C105.69 36.748 105.798 36.9629 105.991 37.1348C106.185 37.3066 106.464 37.3926 106.851 37.3496L108.247 37.2637ZM112.05 28.7129L112.351 41.8184C112.351 42.0547 112.479 42.2051 112.78 42.2695C113.081 42.3555 113.425 42.377 113.812 42.334C114.112 42.291 114.413 42.2266 114.692 42.1191C114.95 42.0332 115.101 41.9043 115.101 41.7324L114.886 28.498C114.886 28.3262 114.714 28.1973 114.413 28.1328C114.112 28.0684 113.769 28.0469 113.403 28.0469C113.038 28.0898 112.716 28.1758 112.458 28.2832C112.179 28.4121 112.05 28.541 112.05 28.7129ZM124.312 34.9648L121.819 32.6445L123.624 30.3027C123.71 30.1738 123.753 30.0234 123.731 29.8516C123.71 29.6797 123.667 29.5293 123.603 29.3574C123.452 29.1211 123.28 28.9062 123.087 28.7344C122.872 28.5625 122.636 28.4551 122.378 28.4551L116.599 28.8418C116.341 28.8848 116.169 28.9922 116.062 29.1855C115.933 29.3789 115.89 29.5938 115.933 29.8301C115.954 30.0664 116.062 30.2812 116.255 30.4531C116.427 30.6465 116.706 30.7324 117.093 30.6895L120.552 30.3027C120.294 30.6895 119.993 31.0977 119.649 31.5703C119.306 32.043 118.919 32.5371 118.532 33.0098C118.146 33.5039 117.737 33.9766 117.351 34.4492C116.942 34.9219 116.577 35.3301 116.233 35.7168C116.104 35.8457 116.104 36.0176 116.19 36.2109C116.276 36.4043 116.427 36.5762 116.642 36.7266C116.899 36.9844 117.179 37.1348 117.501 37.1777C117.823 37.2422 118.081 37.1562 118.296 36.9199L120.401 34.3633C120.681 34.75 121.024 35.0938 121.411 35.3945C121.798 35.6953 122.163 35.9746 122.507 36.2109C122.636 36.3398 122.765 36.4043 122.894 36.4258C123.022 36.4688 123.151 36.4473 123.28 36.4043C123.409 36.3613 123.517 36.2969 123.646 36.1895C123.774 36.1035 123.882 35.9961 124.011 35.8672C124.161 35.6953 124.269 35.5234 124.333 35.3516C124.376 35.1797 124.376 35.0508 124.312 34.9648ZM127.083 30.6465L124.784 30.7754C124.419 30.7969 124.161 30.9258 124.032 31.1406C123.882 31.3555 123.817 31.5918 123.86 31.8496C123.86 32.1504 123.968 32.3867 124.183 32.5801C124.397 32.7734 124.677 32.8379 125.063 32.752L127.126 32.6016L127.298 36.8125C127.319 37.0273 127.47 37.1777 127.771 37.2637C128.071 37.3496 128.394 37.3711 128.759 37.3281C129.081 37.3066 129.382 37.2422 129.683 37.1348C129.983 37.0488 130.134 36.9199 130.134 36.7695L129.897 28.3262C129.897 28.1543 129.726 28.0039 129.425 27.8965C129.124 27.7891 128.78 27.7461 128.415 27.7461C128.05 27.7891 127.728 27.875 127.448 27.9824C127.169 28.1113 127.04 28.2402 127.04 28.4121L127.083 30.6465ZM124.935 44.9766C125.472 44.9766 126.009 44.9121 126.524 44.7402C127.04 44.5898 127.534 44.3535 127.964 44.0527C128.394 43.752 128.737 43.3867 129.038 42.957C129.317 42.5273 129.489 42.0332 129.575 41.4746C129.64 40.959 129.575 40.5078 129.403 40.0781C129.231 39.6484 128.952 39.2832 128.608 38.9609C128.265 38.6602 127.835 38.4023 127.319 38.2305C126.804 38.0586 126.267 37.9727 125.687 37.9727C125.128 37.9727 124.569 38.0586 124.054 38.209C123.538 38.3809 123.065 38.5957 122.636 38.8965C122.206 39.1973 121.862 39.5625 121.583 39.9922C121.304 40.4219 121.132 40.916 121.067 41.4746C120.981 41.9902 121.024 42.4629 121.175 42.8926C121.325 43.3223 121.562 43.6875 121.905 43.9883C122.249 44.3105 122.657 44.5469 123.173 44.7188C123.688 44.8906 124.269 44.9766 124.935 44.9766ZM125.45 39.8203C125.837 39.8203 126.159 39.9922 126.374 40.3145C126.589 40.6582 126.696 41.0879 126.675 41.6035C126.632 42.0332 126.503 42.3984 126.245 42.7207C125.987 43.0645 125.644 43.2148 125.192 43.2148C125.021 43.2148 124.87 43.1934 124.72 43.1289C124.548 43.0859 124.419 42.9785 124.29 42.8496C124.161 42.7207 124.075 42.5703 124.011 42.3555C123.925 42.1621 123.903 41.9043 123.925 41.6035C123.946 41.002 124.118 40.5508 124.419 40.25C124.72 39.9707 125.063 39.8203 125.45 39.8203ZM136.552 36.9199C137.089 36.9199 137.626 36.834 138.163 36.6406C138.679 36.4688 139.173 36.1895 139.603 35.8457C140.032 35.502 140.376 35.0508 140.677 34.5352C140.956 34.0195 141.128 33.4395 141.192 32.7734C141.235 32.1289 141.171 31.5273 140.978 31.0117C140.784 30.4961 140.505 30.0664 140.161 29.7012C139.796 29.3574 139.366 29.0781 138.872 28.9062C138.378 28.7344 137.862 28.627 137.304 28.627C136.745 28.627 136.187 28.7344 135.671 28.9277C135.134 29.1211 134.661 29.4004 134.231 29.7441C133.802 30.0879 133.458 30.5176 133.179 31.0332C132.899 31.5488 132.728 32.1289 132.685 32.7734C132.62 33.418 132.663 33.998 132.835 34.5137C132.985 35.0293 133.222 35.459 133.565 35.8027C133.909 36.168 134.317 36.4473 134.833 36.6406C135.327 36.834 135.907 36.9199 136.552 36.9199ZM137.067 30.4746C137.454 30.4746 137.776 30.7109 137.991 31.1406C138.206 31.5703 138.313 32.1719 138.292 32.9023C138.271 33.5469 138.142 34.084 137.884 34.5137C137.626 34.9434 137.261 35.1582 136.81 35.1582C136.466 35.1582 136.165 34.9863 135.907 34.6426C135.628 34.2988 135.499 33.7188 135.542 32.9023C135.563 32.0859 135.735 31.4844 136.036 31.0762C136.337 30.6895 136.681 30.4746 137.067 30.4746ZM132.104 39.3691C131.804 39.4121 131.61 39.5195 131.481 39.7129C131.353 39.9277 131.31 40.1426 131.353 40.3574C131.353 40.5938 131.438 40.8086 131.61 41.002C131.782 41.2168 132.019 41.3027 132.341 41.2598L141.128 41.002C141.472 41.002 141.708 40.8945 141.88 40.6797C142.052 40.4863 142.138 40.2715 142.138 40.0566C142.116 39.8418 142.03 39.627 141.858 39.4336C141.687 39.2617 141.45 39.1543 141.149 39.1543L132.104 39.3691ZM147.589 40.2715L144.173 40.3574C143.872 40.4004 143.679 40.5078 143.55 40.7012C143.421 40.8945 143.356 41.1094 143.399 41.3457C143.399 41.582 143.485 41.7969 143.657 41.9902C143.829 42.2051 144.065 42.291 144.388 42.248L153.175 41.9902C153.519 41.9902 153.755 41.8828 153.927 41.668C154.099 41.4746 154.185 41.2598 154.185 41.0449C154.163 40.8086 154.077 40.5938 153.905 40.4004C153.733 40.207 153.497 40.0996 153.196 40.0996L150.554 40.2285L150.726 36.2324C150.726 36.1895 150.704 36.1465 150.704 36.1035C151.241 36.0176 151.757 35.9316 152.229 35.8457C152.552 35.7812 152.767 35.6309 152.896 35.416C153.003 35.2012 153.046 34.9863 153.003 34.7285C152.917 34.4492 152.788 34.2129 152.573 34.0195C152.358 33.8477 152.058 33.7832 151.714 33.8691C151.134 34.0625 150.532 34.2129 149.931 34.2988C149.329 34.3848 148.749 34.4492 148.19 34.4707L147.89 33.0957L150.597 32.709C151.499 32.666 152.015 32.3438 152.101 31.7207L152.315 28.9707C152.315 28.8203 152.251 28.6699 152.144 28.541C152.015 28.4121 151.864 28.2832 151.692 28.1758C151.499 28.0898 151.284 28.0039 151.048 27.9395C150.79 27.8965 150.554 27.8535 150.317 27.8535C149.565 27.875 148.942 27.8965 148.47 27.8965C147.976 27.918 147.567 27.9395 147.267 27.9395C146.944 27.9609 146.687 27.9824 146.493 27.9824C146.278 27.9824 146.106 27.9824 145.935 27.9824C145.569 28.0039 145.312 28.1113 145.161 28.3262C144.989 28.541 144.925 28.7559 144.946 28.9922C144.946 29.25 145.032 29.4648 145.226 29.6797C145.419 29.8945 145.677 29.959 146.021 29.873C146.729 29.8301 147.331 29.8086 147.847 29.7871C148.362 29.7656 148.878 29.7441 149.394 29.7441C149.394 30.002 149.372 30.2383 149.372 30.4531C149.372 30.668 149.351 30.8613 149.351 31.0332L146.644 31.334C146.192 31.3984 145.806 31.5488 145.505 31.7852C145.204 32.043 145.054 32.3438 145.054 32.709C145.054 32.8809 145.054 33.0742 145.097 33.3105C145.14 33.5469 145.183 33.7832 145.247 34.041C145.29 34.2988 145.354 34.5352 145.397 34.7715C145.44 35.0078 145.505 35.2012 145.548 35.3301C145.634 35.6738 145.827 35.9316 146.171 36.1035C146.515 36.2754 146.901 36.3613 147.374 36.3613H147.782L147.589 40.2715ZM163.862 40.2715L160.446 40.3574C160.146 40.4004 159.952 40.5078 159.823 40.7012C159.694 40.8945 159.63 41.1094 159.673 41.3457C159.673 41.582 159.759 41.7969 159.931 41.9902C160.103 42.2051 160.339 42.291 160.661 42.248L169.448 41.9902C169.792 41.9902 170.028 41.8828 170.2 41.668C170.372 41.4746 170.458 41.2598 170.458 41.0449C170.437 40.8086 170.351 40.5938 170.179 40.4004C170.007 40.207 169.771 40.0996 169.47 40.0996L166.827 40.2285L166.999 36.2324C166.999 36.1895 166.978 36.1465 166.978 36.1035C167.515 36.0176 168.03 35.9316 168.503 35.8457C168.825 35.7812 169.04 35.6309 169.169 35.416C169.276 35.2012 169.319 34.9863 169.276 34.7285C169.19 34.4492 169.062 34.2129 168.847 34.0195C168.632 33.8477 168.331 33.7832 167.987 33.8691C167.407 34.0625 166.806 34.2129 166.204 34.2988C165.603 34.3848 165.022 34.4492 164.464 34.4707L164.163 33.0957L166.87 32.709C167.772 32.666 168.288 32.3438 168.374 31.7207L168.589 28.9707C168.589 28.8203 168.524 28.6699 168.417 28.541C168.288 28.4121 168.138 28.2832 167.966 28.1758C167.772 28.0898 167.558 28.0039 167.321 27.9395C167.063 27.8965 166.827 27.8535 166.591 27.8535C165.839 27.875 165.216 27.8965 164.743 27.8965C164.249 27.918 163.841 27.9395 163.54 27.9395C163.218 27.9609 162.96 27.9824 162.767 27.9824C162.552 27.9824 162.38 27.9824 162.208 27.9824C161.843 28.0039 161.585 28.1113 161.435 28.3262C161.263 28.541 161.198 28.7559 161.22 28.9922C161.22 29.25 161.306 29.4648 161.499 29.6797C161.692 29.8945 161.95 29.959 162.294 29.873C163.003 29.8301 163.604 29.8086 164.12 29.7871C164.636 29.7656 165.151 29.7441 165.667 29.7441C165.667 30.002 165.646 30.2383 165.646 30.4531C165.646 30.668 165.624 30.8613 165.624 31.0332L162.917 31.334C162.466 31.3984 162.079 31.5488 161.778 31.7852C161.478 32.043 161.327 32.3438 161.327 32.709C161.327 32.8809 161.327 33.0742 161.37 33.3105C161.413 33.5469 161.456 33.7832 161.521 34.041C161.563 34.2988 161.628 34.5352 161.671 34.7715C161.714 35.0078 161.778 35.2012 161.821 35.3301C161.907 35.6738 162.101 35.9316 162.444 36.1035C162.788 36.2754 163.175 36.3613 163.647 36.3613H164.056L163.862 40.2715ZM179.282 29.1426L173.374 29.3145C173.03 29.3574 172.772 29.4648 172.601 29.6582C172.429 29.8516 172.364 30.0664 172.407 30.2812C172.407 30.5176 172.515 30.7324 172.708 30.9258C172.901 31.1191 173.159 31.2051 173.503 31.1621L178.208 31.0117L178.53 35.7812C178.552 36.0391 178.724 36.1895 179.024 36.2754C179.325 36.3613 179.647 36.3613 180.013 36.2969C180.335 36.2539 180.636 36.1465 180.937 35.9961C181.216 35.8672 181.366 35.6953 181.366 35.4805L181.13 30.1738C181.087 30.002 181.022 29.8301 180.894 29.6797C180.765 29.5508 180.636 29.4219 180.464 29.3359C180.292 29.25 180.099 29.1855 179.884 29.1426C179.669 29.0996 179.476 29.0996 179.282 29.1426ZM172.472 39.3691C172.171 39.4121 171.978 39.5195 171.849 39.7129C171.72 39.9277 171.677 40.1426 171.72 40.3574C171.72 40.5938 171.806 40.8086 171.978 41.002C172.149 41.2168 172.386 41.3027 172.708 41.2598L181.495 41.002C181.839 41.002 182.075 40.8945 182.247 40.6797C182.419 40.4863 182.505 40.2715 182.505 40.0566C182.483 39.8418 182.397 39.627 182.226 39.4336C182.054 39.2617 181.817 39.1543 181.517 39.1543L172.472 39.3691ZM187.269 36.8125C187.806 36.8125 188.343 36.7266 188.88 36.5332C189.396 36.3613 189.89 36.082 190.319 35.7383C190.749 35.3945 191.093 34.9434 191.394 34.4277C191.673 33.9121 191.845 33.332 191.909 32.666C191.952 32.0215 191.888 31.4199 191.694 30.9043C191.501 30.3887 191.222 29.959 190.878 29.5938C190.513 29.25 190.083 28.9707 189.589 28.7988C189.095 28.627 188.579 28.5195 188.021 28.5195C187.462 28.5195 186.903 28.627 186.388 28.8203C185.851 29.0137 185.378 29.293 184.948 29.6367C184.519 29.9805 184.175 30.4102 183.896 30.9258C183.616 31.4414 183.444 32.0215 183.401 32.666C183.337 33.3105 183.38 33.8906 183.552 34.4062C183.702 34.9219 183.938 35.3516 184.282 35.6953C184.626 36.0605 185.034 36.3398 185.55 36.5332C186.044 36.7266 186.624 36.8125 187.269 36.8125ZM187.784 30.3672C188.171 30.3672 188.493 30.6035 188.708 31.0332C188.923 31.4629 189.03 32.0645 189.009 32.7949C188.987 33.4395 188.858 33.9766 188.601 34.4062C188.343 34.8359 187.978 35.0508 187.526 35.0508C187.183 35.0508 186.882 34.8789 186.624 34.5352C186.345 34.1914 186.216 33.6113 186.259 32.7949C186.28 31.9785 186.452 31.377 186.753 30.9688C187.054 30.582 187.397 30.3672 187.784 30.3672ZM194.272 28.4551L194.487 38.2949C194.487 38.5312 194.638 38.6816 194.938 38.7461C195.239 38.832 195.562 38.832 195.948 38.7891C196.271 38.7676 196.571 38.7031 196.872 38.5957C197.173 38.4883 197.323 38.3594 197.323 38.209L197.151 28.2832C197.151 28.0684 196.979 27.9395 196.657 27.875C196.335 27.8105 195.991 27.7891 195.647 27.8105C195.282 27.8535 194.96 27.9395 194.681 28.0469C194.401 28.1758 194.272 28.3047 194.272 28.4551ZM191.737 44.5254H191.716L193.134 44.4609L197.194 44.2246C197.517 44.2246 197.774 44.1172 197.946 43.9238C198.118 43.7305 198.226 43.5156 198.226 43.3008C198.226 43.0859 198.14 42.8711 197.968 42.6992C197.796 42.5273 197.517 42.4414 197.173 42.4629L192.812 42.6348L193.026 38.6387C193.026 38.4453 192.897 38.2949 192.597 38.166C192.296 38.0371 191.974 37.9727 191.63 37.9297C191.437 37.9297 191.243 37.9512 191.071 37.9512C190.899 37.9727 190.728 37.9941 190.599 38.0371C190.448 38.0801 190.319 38.1445 190.233 38.2305C190.147 38.3164 190.104 38.4023 190.104 38.5098L189.804 43.4941C189.782 43.666 189.825 43.8379 189.954 43.9668C190.062 44.1172 190.212 44.2246 190.405 44.3105C190.577 44.3965 190.792 44.4609 191.028 44.5039C191.265 44.5469 191.501 44.5684 191.737 44.5254ZM201.872 30.668L199.552 30.6895C199.208 30.6895 198.95 30.7969 198.8 31.0117C198.649 31.2266 198.585 31.4414 198.628 31.6777C198.649 31.9355 198.757 32.1719 198.95 32.3652C199.144 32.5801 199.423 32.666 199.81 32.666L206.513 32.4512C206.835 32.4512 207.093 32.3652 207.265 32.1719C207.437 32 207.522 31.7852 207.565 31.5273C207.565 31.3125 207.501 31.0977 207.351 30.9043C207.2 30.7109 206.964 30.6035 206.642 30.6035L204.794 30.625L204.407 27.4668C204.386 27.3379 204.321 27.252 204.235 27.166C204.128 27.0801 203.999 27.0156 203.849 26.9727C203.698 26.9297 203.526 26.8867 203.354 26.8867C203.161 26.8867 202.989 26.8867 202.817 26.9082C202.474 26.9727 202.173 27.0801 201.915 27.2305C201.636 27.3809 201.485 27.5527 201.485 27.7246L201.872 30.668ZM202.86 40.4219C203.333 40.4219 203.827 40.3574 204.3 40.1855C204.772 40.0137 205.224 39.7773 205.61 39.4766C205.997 39.1758 206.319 38.8105 206.577 38.3809C206.835 37.9512 207.007 37.4785 207.071 36.9414C207.114 36.4258 207.071 35.9531 206.899 35.5234C206.728 35.0938 206.47 34.7285 206.147 34.4277C205.804 34.127 205.417 33.9121 204.966 33.7402C204.515 33.5684 204.042 33.4824 203.526 33.4824C203.011 33.4824 202.517 33.5684 202.044 33.7402C201.571 33.9121 201.142 34.1484 200.755 34.4492C200.368 34.75 200.067 35.1152 199.81 35.5449C199.552 35.9746 199.38 36.4258 199.337 36.9414C199.272 37.457 199.315 37.9082 199.444 38.3379C199.573 38.7676 199.81 39.1543 200.132 39.4551C200.433 39.7559 200.819 39.9922 201.292 40.1641C201.743 40.3359 202.259 40.4219 202.86 40.4219ZM203.312 35.2227C203.677 35.2227 203.956 35.3945 204.149 35.6953C204.343 35.9961 204.429 36.4688 204.386 37.0703C204.343 37.5859 204.235 37.9941 204.021 38.2949C203.806 38.5957 203.505 38.7461 203.097 38.7461C202.796 38.7461 202.517 38.6387 202.28 38.3809C202.044 38.1445 201.937 37.7148 201.979 37.0703C202.001 36.4258 202.151 35.9746 202.409 35.6738C202.667 35.373 202.968 35.2227 203.312 35.2227ZM209.478 28.6699L209.821 41.8184C209.821 42.0547 209.972 42.2051 210.272 42.2695C210.573 42.3555 210.917 42.377 211.304 42.334C211.604 42.291 211.905 42.2266 212.185 42.1191C212.464 42.0332 212.614 41.9043 212.614 41.7324L212.507 34.4707L214.741 34.2988C215.085 34.2988 215.343 34.1914 215.515 33.9766C215.687 33.7617 215.794 33.5469 215.794 33.2891C215.794 33.0527 215.687 32.8379 215.515 32.623C215.343 32.4297 215.106 32.3223 214.806 32.3223L212.464 32.4727L212.399 28.541C212.399 28.3691 212.228 28.2402 211.927 28.1543C211.626 28.0684 211.282 28.0469 210.917 28.0469C210.53 28.0898 210.208 28.1543 209.907 28.2617C209.606 28.3691 209.478 28.498 209.478 28.6699ZM222.556 29.2285L217.399 29.4434C217.034 29.4648 216.776 29.5723 216.604 29.7656C216.433 29.9805 216.368 30.1953 216.39 30.4316C216.39 30.668 216.476 30.8828 216.669 31.0762C216.841 31.291 217.099 31.377 217.442 31.334L221.374 31.1406L220.085 39.1543C220.085 39.3691 220.192 39.541 220.429 39.6699C220.644 39.7988 220.923 39.8848 221.245 39.9277C221.61 39.9922 221.976 39.9922 222.319 39.9062C222.663 39.8203 222.856 39.6699 222.921 39.4121L224.425 30.2598C224.425 30.1523 224.36 30.0234 224.253 29.873C224.146 29.7227 223.995 29.5938 223.78 29.4648C223.458 29.293 223.05 29.207 222.556 29.2285ZM226.53 28.5195L226.745 41.7324C226.745 41.9688 226.896 42.1191 227.196 42.1836C227.497 42.2695 227.819 42.2695 228.206 42.2266C228.528 42.2051 228.829 42.1406 229.13 42.0332C229.431 41.9258 229.581 41.7969 229.581 41.6465L229.409 28.3477C229.409 28.1328 229.237 28.0039 228.915 27.9395C228.593 27.875 228.249 27.8535 227.905 27.875C227.54 27.918 227.218 28.0039 226.938 28.1113C226.659 28.2402 226.53 28.3691 226.53 28.5195Z" fill="white"/>
</svg>
