<svg width="236" height="284" viewBox="0 0 236 284" fill="none" xmlns="http://www.w3.org/2000/svg">
<path d="M223.395 210.682C215.452 187.693 215.472 162.701 223.453 139.725L223.754 138.854C240.317 91.2384 219.088 39.6544 174.371 18.848C157.333 11.1137 138.889 6.95782 120.18 6.63748C101.472 6.31713 82.8961 9.83914 65.6031 16.9856C18.6655 36.768 -4.79688 90.4448 12.1375 139.226L12.5727 140.474C20.3905 163.048 20.3905 187.595 12.5727 210.17C4.20285 234.305 5.41703 260.733 15.9647 284H220.4C230.7 260.834 231.771 234.611 223.395 210.682Z" fill="url(#paint0_linear_759_1165)"/>
<path d="M229.078 208.704L226.237 209.69L229.078 208.698C221.585 186.991 221.605 163.396 229.136 141.702L229.443 140.838C247.024 90.2784 224.445 35.4944 176.912 13.3824C159.11 5.29416 139.836 0.950131 120.286 0.619851C100.735 0.289571 81.3256 3.98009 63.2607 11.4624C13.4047 32.48 -11.5489 89.44 6.44794 141.171L6.88314 142.419C14.2546 163.713 14.2546 186.866 6.88314 208.16C-1.68337 232.881 -0.771145 259.901 9.44314 283.987H15.9647C5.40988 260.716 4.19336 234.28 12.5663 210.138C20.3841 187.563 20.3841 163.016 12.5663 140.442L12.1311 139.194C-4.82246 90.4448 18.6591 36.7936 65.5967 16.9856C82.8942 9.83466 101.475 6.31026 120.19 6.63061C138.905 6.95095 157.354 11.1092 174.397 18.848C219.114 39.648 240.317 91.2384 223.779 138.854L223.478 139.725C215.498 162.701 215.478 187.693 223.421 210.682C231.788 234.614 230.708 260.837 220.4 284H226.954C236.9 260.017 237.656 233.21 229.078 208.704Z" fill="white"/>
<path d="M67.3505 271.373C65.9627 261.995 65.3377 252.519 65.4817 243.04C83.2609 244.96 101.27 244.858 119.114 244.87H150.806C160.336 244.87 169.949 245.165 179.427 244.058C178.147 257.293 178.262 272.915 170.506 283.962H177.45C184.029 271.642 184.08 256.774 185.558 243.098C199.28 240.314 211.99 233.44 218.877 220.627C220.714 217.216 215.517 214.17 213.68 217.587C205.418 232.947 188.406 237.824 172.08 238.637C153.853 239.546 135.44 238.848 117.194 238.829C99.6385 238.829 81.9616 238.829 64.496 236.909C49.0592 235.213 33.4561 231.226 21.6161 220.614C18.7425 218.054 14.4673 222.278 17.3601 224.877C29.1489 235.462 44.0481 240.115 59.4529 242.278C59.2673 255.821 59.7216 270.765 63.8752 283.942H70.1921C68.8919 279.84 67.9414 275.635 67.3505 271.373Z" fill="white"/>
<path d="M181.782 143.283C175.816 148.307 169.19 152.491 162.09 155.718C155.05 158.918 146.934 160.275 140.618 164.87C135.088 168.896 130.858 176.192 133.398 183.11C135.939 190.029 141.117 193.05 147.965 193.638C149.456 193.766 150.954 193.792 152.445 193.786C152.139 195.217 151.737 196.626 151.242 198.003C151.084 198.497 150.758 198.919 150.32 199.196C149.883 199.474 149.361 199.588 148.848 199.52C147.357 199.578 145.859 199.571 144.368 199.635C140.893 199.776 137.245 200.038 133.757 200.038C127.459 200.038 123.178 199.744 116.746 200.506C110.314 201.267 103.882 201.946 97.4175 202.214C94.1791 202.349 96.0799 202.515 92.8415 202.214C90.9215 202.042 85.4751 201.075 86.5247 197.926C86.9663 196.614 87.5743 195.827 88.6239 193.728C89.8143 193.728 89.8015 193.786 91.0047 193.779C98.0767 193.779 100.605 192.006 104.637 185.638C108.618 179.392 105.962 171.482 100.918 166.733C96.5535 162.618 90.8255 160.749 85.2191 158.829C85.3857 158.348 85.4319 157.834 85.3535 157.331C84.4762 151.807 83.9206 146.236 83.6895 140.646C83.5935 138.202 83.5551 135.763 83.5807 133.318C83.5807 131.322 82.9407 127.258 85.1807 126.214C87.1647 125.286 91.1519 125.901 93.2959 126.016C96.0857 126.179 98.8637 126.504 101.616 126.989C106.538 127.827 108.579 127.629 116.298 127.859C126.25 128.186 135.926 128.576 145.885 128.122C147.35 128.051 150.115 127.546 151.408 128.48C153.072 129.677 152.246 133.555 152.157 135.245C151.882 140.602 150.998 150.054 149.686 155.251C148.733 159.008 154.544 160.614 155.491 156.851C157.046 150.694 158.019 140.211 158.243 133.843C158.416 129.139 158.109 124.333 152.938 122.63C147.888 120.966 141.654 122.355 136.445 122.182C129.219 121.939 122.314 121.638 115.101 121.472C107.53 121.306 102.525 120.832 96.1119 120.192C91.5295 119.744 83.3823 118.63 79.8111 122.445C76.2399 126.259 77.4943 133.856 77.6095 138.445C77.7976 144.52 78.349 150.579 79.2607 156.589C71.37 153.292 64.0315 148.804 57.5007 143.283C54.5567 140.8 50.2751 145.037 53.2383 147.546C58.5191 152.046 64.2924 155.934 70.4479 159.136C76.7071 162.336 83.3823 164.211 89.8463 166.899C94.9663 169.05 102.058 173.939 100.368 180.512C98.6783 187.085 89.9807 187.821 84.4575 187.744C75.5487 187.622 66.8959 187.808 58.0959 189.414C54.2559 190.112 55.9007 195.917 59.7023 195.226C65.4623 194.17 76.3423 193.914 82.1023 193.837C78.3519 199.782 83.1647 206.47 89.7119 207.827C94.3775 208.794 94.1919 208.39 98.9279 208.154C104.643 207.866 110.339 207.27 116.022 206.598C126.902 205.318 135.664 205.856 146.627 205.574C150.525 205.472 153.181 205.837 155.914 202.445C157.494 200.474 159.958 195.808 159.024 193.651C160.048 193.651 161.072 193.619 162.096 193.651C167.954 193.771 173.796 194.299 179.581 195.232C183.37 195.923 184.995 190.112 181.181 189.421C173.486 188.021 165.664 187.435 157.846 187.674C151.869 187.853 143.626 188.314 139.843 182.605C136.061 176.896 141.968 170.682 146.8 168.16C152.957 164.915 159.946 163.405 166.256 160.422C173.385 157.012 180.042 152.69 186.058 147.565C189.04 145.037 184.733 140.794 181.782 143.283Z" fill="white"/>
<path opacity="0.72" d="M181.782 143.283C175.816 148.307 169.19 152.491 162.089 155.718C159.491 156.902 156.745 157.83 153.993 158.771C153.993 158.771 153.993 158.771 153.993 158.733C154.367 158.553 154.695 158.29 154.951 157.964C155.208 157.638 155.386 157.257 155.472 156.851C157.027 150.694 158 140.211 158.224 133.843C158.397 129.139 158.089 124.333 152.918 122.63C147.869 120.966 141.635 122.355 136.425 122.182C129.2 121.939 122.294 121.638 115.081 121.472C107.51 121.306 102.505 120.832 96.0927 120.192C91.5103 119.744 83.3631 118.63 79.7919 122.445C76.2207 126.259 77.4751 133.856 77.5903 138.445C77.7784 144.52 78.3297 150.579 79.2415 156.589C71.3507 153.292 64.0122 148.804 57.4815 143.283C54.5375 140.8 50.2559 145.037 53.2191 147.546C58.5059 152.047 64.2856 155.936 70.4479 159.136C76.7071 162.336 83.3823 164.211 89.8463 166.899C90.6335 167.232 91.4591 167.629 92.2975 168.077C93.4935 168.717 94.6345 169.456 95.7087 170.285C96.2306 170.684 96.7305 171.112 97.2063 171.565C97.7569 172.093 98.2622 172.667 98.7167 173.28C98.948 173.594 99.1617 173.921 99.3567 174.259C99.9356 175.176 100.322 176.2 100.493 177.271C100.663 178.341 100.614 179.435 100.349 180.486C99.8817 182.219 98.8474 183.744 97.4111 184.819C95.875 185.902 94.132 186.656 92.2911 187.034V193.76C91.8751 193.76 91.4463 193.76 91.0111 193.76C89.8079 193.76 89.8207 193.709 88.6303 193.709C87.5807 195.808 86.9727 196.589 86.5311 197.907C85.4815 201.056 90.9407 202.022 92.8479 202.195C96.0863 202.483 94.1855 202.317 97.4239 202.195C103.888 201.926 110.326 201.242 116.752 200.486C123.177 199.731 127.465 200.019 133.763 200.019C137.251 200.019 140.899 199.757 144.374 199.616C145.865 199.552 147.363 199.558 148.854 199.501C149.368 199.573 149.891 199.462 150.331 199.187C150.771 198.912 151.1 198.49 151.261 197.997C151.756 196.62 152.158 195.211 152.464 193.779C150.96 193.779 149.462 193.779 147.984 193.632C144.144 193.306 140.822 192.205 138.198 190.08C139 189.395 139.745 188.646 140.425 187.84C141.123 186.989 141.752 186.083 142.307 185.133C141.414 184.5 140.639 183.716 140.016 182.816C139.958 182.739 139.894 182.669 139.843 182.592C139.034 181.406 138.62 179.995 138.659 178.56C138.696 177.501 138.946 176.461 139.395 175.501C140.291 173.63 141.579 171.973 143.171 170.643C144.159 169.788 145.231 169.036 146.371 168.397L146.8 168.16C147.171 167.962 147.561 167.789 147.945 167.603C153.814 164.742 160.329 163.226 166.256 160.422C173.385 157.012 180.042 152.69 186.057 147.565C189.04 145.037 184.733 140.794 181.782 143.283ZM99.2223 165.274C99.8224 165.728 100.397 166.215 100.944 166.733C101.27 167.04 101.584 167.373 101.891 167.693C101.584 167.36 101.251 167.053 100.944 166.733C100.397 166.215 99.8224 165.728 99.2223 165.274ZM132.688 178.637C132.678 179.051 132.691 179.466 132.726 179.878C132.669 179.462 132.656 179.04 132.662 178.637H132.688ZM132.809 177.05C132.743 177.521 132.702 177.995 132.688 178.47C132.694 177.995 132.726 177.521 132.784 177.05H132.809ZM104.323 171.014C103.872 170.229 103.363 169.478 102.8 168.768C103.354 169.479 103.854 170.23 104.297 171.014H104.323ZM102.781 168.742C102.531 168.422 102.262 168.102 101.987 167.808C102.237 168.109 102.505 168.422 102.755 168.742H102.781ZM105.763 174.17C106.082 175.104 106.312 176.066 106.448 177.043C106.312 176.066 106.082 175.104 105.763 174.17ZM106.544 178.4C106.544 177.946 106.486 177.491 106.422 177.043C106.48 177.504 106.525 177.958 106.544 178.4ZM106.544 178.72C106.544 179.072 106.544 179.424 106.544 179.776C106.55 179.437 106.557 179.085 106.55 178.733L106.544 178.72ZM106.48 180.211C106.48 180.525 106.409 180.851 106.358 181.146C106.416 180.845 106.48 180.538 106.48 180.224V180.211ZM106.262 181.626C106.198 181.926 106.121 182.221 106.032 182.522C106.128 182.24 106.205 181.939 106.269 181.638L106.262 181.626ZM105.885 183.002C105.782 183.309 105.654 183.642 105.52 183.917C105.661 183.629 105.789 183.322 105.891 183.014L105.885 183.002ZM134 184.557C134.166 184.915 134.339 185.274 134.525 185.606C134.339 185.274 134.166 184.915 134 184.557ZM134.557 185.664C134.955 186.393 135.411 187.088 135.92 187.744C135.409 187.089 134.953 186.394 134.557 185.664ZM133.398 183.104C133.228 182.633 133.087 182.152 132.976 181.664C133.087 182.152 133.228 182.633 133.398 183.104C133.565 183.546 133.737 183.974 133.923 184.384C133.737 183.981 133.565 183.552 133.398 183.11V183.104ZM132.72 180.179C132.76 180.562 132.82 180.942 132.899 181.318C132.82 180.942 132.76 180.562 132.72 180.179ZM133.533 173.997C133.693 173.562 133.878 173.133 134.07 172.717C133.878 173.146 133.693 173.574 133.539 173.997H133.533ZM138.141 166.989C137.923 167.206 137.705 167.43 137.501 167.661C137.712 167.43 137.929 167.206 138.147 166.989H138.141ZM137.2 168.019C136.995 168.256 136.79 168.499 136.592 168.742C136.765 168.499 136.969 168.256 137.2 168.019ZM136.304 169.114C136.105 169.37 135.907 169.638 135.721 169.907C135.881 169.638 136.08 169.37 136.278 169.114H136.304ZM135.485 170.259C135.286 170.547 135.107 170.848 134.928 171.149C135.081 170.848 135.28 170.554 135.459 170.259H135.485ZM134.749 171.456C134.557 171.795 134.384 172.141 134.217 172.486C134.358 172.141 134.531 171.795 134.723 171.456H134.749ZM92.3231 161.427C90.0127 160.461 87.6191 159.648 85.2447 158.829C89.0847 160.109 92.9247 161.434 96.3807 163.418C95.0614 162.672 93.6978 162.007 92.2975 161.427H92.3231ZM104.662 185.638C104.925 185.226 105.165 184.798 105.379 184.358C105.165 184.798 104.925 185.226 104.662 185.638C104.125 186.477 103.619 187.232 103.12 187.923C103.593 187.232 104.099 186.477 104.637 185.638H104.662ZM92.3039 193.76C92.7647 193.76 93.2063 193.709 93.6287 193.67C93.2063 193.702 92.7647 193.76 92.3039 193.76ZM93.9871 193.632L94.8639 193.51L93.9871 193.632ZM96.3487 193.197C97.0251 193.014 97.6813 192.763 98.3071 192.448C97.681 192.761 97.0249 193.01 96.3487 193.19V193.197ZM95.2415 193.446C95.5231 193.395 95.7919 193.338 96.0543 193.274C95.7919 193.331 95.5231 193.389 95.2415 193.44V193.446ZM100.304 191.091C100.579 190.854 100.848 190.605 101.117 190.33C100.848 190.598 100.579 190.848 100.304 191.085V191.091ZM98.5567 192.307C98.7743 192.186 98.9919 192.064 99.1967 191.923C98.9919 192.051 98.7999 192.179 98.5567 192.301V192.307ZM99.4655 191.744C99.6767 191.59 99.8879 191.43 100.105 191.264C99.8879 191.424 99.6767 191.584 99.4399 191.738L99.4655 191.744ZM138.505 166.656C138.742 166.432 138.985 166.214 139.229 166.016C138.973 166.24 138.729 166.426 138.48 166.65L138.505 166.656ZM139.549 165.722C139.901 165.427 140.259 165.146 140.63 164.877C140.246 165.139 139.888 165.421 139.536 165.715L139.549 165.722Z" fill="white"/>
<path d="M132.784 177.05C129.23 176.038 125.729 174.876 122.281 173.562L122.921 174.515C124.003 176.23 125.085 177.952 126.23 179.635C128.516 183.06 131.176 186.219 134.16 189.056C134.776 188.665 135.368 188.238 135.933 187.776C134.862 186.369 134.014 184.807 133.417 183.142C132.699 181.197 132.481 179.102 132.784 177.05Z" fill="#E6F7A6"/>
<path d="M137.533 157.28C133.597 154.72 128.746 153.568 124.138 152.966C122.742 152.787 121.347 152.659 119.946 152.563C119.946 155.866 119.946 159.166 119.946 162.464V168.224C119.946 168.41 119.946 169.037 119.946 169.203C120.074 169.242 120.445 169.453 120.541 169.491C121.366 169.856 122.218 170.17 123.062 170.49C126.506 171.808 130.006 172.973 133.565 173.984C134.978 170.324 137.424 167.154 140.605 164.858C141.187 164.435 141.795 164.045 142.41 163.667C141.568 161.04 139.845 158.784 137.533 157.28Z" fill="#B4D1ED"/>
<path d="M123.881 181.779C123.574 181.331 123.28 180.883 122.979 180.435C123.088 181.107 123.203 181.779 123.299 182.451C123.76 185.754 124.058 189.073 124.195 192.41C126.615 192.126 128.985 191.508 131.235 190.573C128.508 187.884 126.046 184.939 123.881 181.779Z" fill="#FFC880"/>
<path d="M116.33 174.56C116.191 174.452 116.068 174.325 115.965 174.182H106.813H105.757C107.037 177.946 106.941 182.074 104.656 185.651C104.118 186.49 103.613 187.245 103.114 187.936C103.338 188.166 103.549 188.41 103.792 188.627C105.93 190.509 108.746 191.443 111.619 191.955C111.623 191.938 111.623 191.921 111.619 191.904C112.925 186.08 115.613 180.474 116.33 174.56Z" fill="#EAA4CB"/>
<path d="M104.297 171.014H106.435H114.198C112.649 168.755 110.665 166.752 109.238 164.435C107.485 161.587 106.243 158.035 103.478 155.955C103.275 155.801 103.1 155.612 102.96 155.398C101.75 156.871 100.847 158.57 100.304 160.397C99.8085 161.984 99.4425 163.608 99.2095 165.254C99.8096 165.709 100.384 166.196 100.931 166.714C102.257 167.976 103.391 169.425 104.297 171.014Z" fill="#ACE5C6"/>
<path d="M111.811 162.624C113.226 164.966 115.056 166.982 116.618 169.19C116.664 169.109 116.719 169.034 116.784 168.966C116.618 167.194 116.784 165.28 116.784 163.533V152.442C115.431 152.399 114.079 152.378 112.726 152.378C112.567 152.673 112.31 152.903 111.999 153.028C111.688 153.153 111.343 153.165 111.024 153.062C109.149 152.525 107.142 152.696 105.385 153.542C108.4 155.942 109.866 159.392 111.811 162.624Z" fill="#C1ABED"/>
<path d="M119.107 177.12C118.089 182.272 115.945 187.245 114.736 192.352C115.485 192.429 116.227 192.493 116.944 192.544C118.311 192.645 119.683 192.673 121.053 192.627C120.938 189.199 120.63 185.781 120.131 182.387C119.862 180.64 119.485 178.886 119.107 177.12Z" fill="#8DAECE"/>
<path d="M100.041 67.8209C104.456 67.8209 108.035 63.348 108.035 57.8305C108.035 52.3129 104.456 47.8401 100.041 47.8401C95.6267 47.8401 92.0479 52.3129 92.0479 57.8305C92.0479 63.348 95.6267 67.8209 100.041 67.8209Z" fill="#404CBC"/>
<path d="M137.405 67.8209C141.819 67.8209 145.398 63.348 145.398 57.8305C145.398 52.3129 141.819 47.8401 137.405 47.8401C132.99 47.8401 129.411 52.3129 129.411 57.8305C129.411 63.348 132.99 67.8209 137.405 67.8209Z" fill="#404CBC"/>
<path d="M103.581 80.7552C104.087 80.7967 104.585 80.9109 105.059 81.0944C105.758 81.4129 106.425 81.7987 107.05 82.2464C108.477 83.2128 109.77 84.3584 111.094 85.4464C113.878 87.744 117.059 90.3872 120.854 90.5152C124.432 90.6304 127.254 88.096 129.699 85.76C130.979 84.5504 132.144 83.2768 133.482 82.1568C133.924 81.7762 134.402 81.4397 134.909 81.152C134.909 81.152 135.786 80.704 135.357 80.9088C135.546 80.8436 135.738 80.7881 135.933 80.7424C135.626 80.7424 135.651 80.7744 136.01 80.7424C139.85 80.5952 139.85 74.5984 136.01 74.7456C132.4 74.8864 129.661 77.3952 127.203 79.7952C126.009 81.048 124.749 82.2358 123.427 83.3536C122.94 83.7424 122.412 84.0772 121.853 84.352C121.661 84.4416 121.661 84.448 121.853 84.352C121.665 84.4201 121.472 84.4756 121.277 84.5184C121.814 84.4608 120.976 84.5184 120.867 84.5184C120.022 84.416 118.499 83.5712 117.398 82.8032C115.984 81.8112 114.691 80.6528 113.354 79.5584C110.499 77.2288 107.434 74.88 103.594 74.7584C99.7536 74.6368 99.7536 80.6336 103.594 80.7552H103.581Z" fill="#404CBC"/>
<defs>
<linearGradient id="paint0_linear_759_1165" x1="-65.1553" y1="11.6736" x2="207.677" y2="245.53" gradientUnits="userSpaceOnUse">
<stop stop-color="#BEE0FF"/>
<stop offset="1" stop-color="#B4B4FF"/>
</linearGradient>
</defs>
</svg>
